<svg xmlns="http://www.w3.org/2000/svg" xmlns:xlink="http://www.w3.org/1999/xlink" width="600" height="400" viewBox="0 0 2400 1600">
<defs>
  <clipPath id="clip080">
    <rect x="0" y="0" width="2400" height="1600"></rect>
  </clipPath>
</defs>
<path clip-path="url(#clip080)" d="M0 1600 L2400 1600 L2400 0 L0 0  Z" fill="#ffffff" fill-rule="evenodd" fill-opacity="1"></path>
<defs>
  <clipPath id="clip081">
    <rect x="480" y="0" width="1681" height="1600"></rect>
  </clipPath>
</defs>
<path clip-path="url(#clip080)" d="M235.283 1423.18 L2352.76 1423.18 L2352.76 123.472 L235.283 123.472  Z" fill="#ffffff" fill-rule="evenodd" fill-opacity="1"></path>
<defs>
  <clipPath id="clip082">
    <rect x="235" y="123" width="2118" height="1301"></rect>
  </clipPath>
</defs>
<polyline clip-path="url(#clip082)" style="stroke:#000000; stroke-linecap:round; stroke-linejoin:round; stroke-width:2; stroke-opacity:0.1; fill:none" points="428.386,1423.18 428.386,123.472 "></polyline>
<polyline clip-path="url(#clip082)" style="stroke:#000000; stroke-linecap:round; stroke-linejoin:round; stroke-width:2; stroke-opacity:0.1; fill:none" points="827.909,1423.18 827.909,123.472 "></polyline>
<polyline clip-path="url(#clip082)" style="stroke:#000000; stroke-linecap:round; stroke-linejoin:round; stroke-width:2; stroke-opacity:0.1; fill:none" points="1227.43,1423.18 1227.43,123.472 "></polyline>
<polyline clip-path="url(#clip082)" style="stroke:#000000; stroke-linecap:round; stroke-linejoin:round; stroke-width:2; stroke-opacity:0.1; fill:none" points="1626.96,1423.18 1626.96,123.472 "></polyline>
<polyline clip-path="url(#clip082)" style="stroke:#000000; stroke-linecap:round; stroke-linejoin:round; stroke-width:2; stroke-opacity:0.1; fill:none" points="2026.48,1423.18 2026.48,123.472 "></polyline>
<polyline clip-path="url(#clip080)" style="stroke:#000000; stroke-linecap:round; stroke-linejoin:round; stroke-width:4; stroke-opacity:1; fill:none" points="235.283,1423.18 2352.76,1423.18 "></polyline>
<polyline clip-path="url(#clip080)" style="stroke:#000000; stroke-linecap:round; stroke-linejoin:round; stroke-width:4; stroke-opacity:1; fill:none" points="428.386,1423.18 428.386,1404.28 "></polyline>
<polyline clip-path="url(#clip080)" style="stroke:#000000; stroke-linecap:round; stroke-linejoin:round; stroke-width:4; stroke-opacity:1; fill:none" points="827.909,1423.18 827.909,1404.28 "></polyline>
<polyline clip-path="url(#clip080)" style="stroke:#000000; stroke-linecap:round; stroke-linejoin:round; stroke-width:4; stroke-opacity:1; fill:none" points="1227.43,1423.18 1227.43,1404.28 "></polyline>
<polyline clip-path="url(#clip080)" style="stroke:#000000; stroke-linecap:round; stroke-linejoin:round; stroke-width:4; stroke-opacity:1; fill:none" points="1626.96,1423.18 1626.96,1404.28 "></polyline>
<polyline clip-path="url(#clip080)" style="stroke:#000000; stroke-linecap:round; stroke-linejoin:round; stroke-width:4; stroke-opacity:1; fill:none" points="2026.48,1423.18 2026.48,1404.28 "></polyline>
<path clip-path="url(#clip080)" d="M405.689 1454.1 Q402.078 1454.1 400.249 1457.66 Q398.444 1461.2 398.444 1468.33 Q398.444 1475.44 400.249 1479.01 Q402.078 1482.55 405.689 1482.55 Q409.323 1482.55 411.129 1479.01 Q412.958 1475.44 412.958 1468.33 Q412.958 1461.2 411.129 1457.66 Q409.323 1454.1 405.689 1454.1 M405.689 1450.39 Q411.499 1450.39 414.555 1455 Q417.633 1459.58 417.633 1468.33 Q417.633 1477.06 414.555 1481.67 Q411.499 1486.25 405.689 1486.25 Q399.879 1486.25 396.8 1481.67 Q393.745 1477.06 393.745 1468.33 Q393.745 1459.58 396.8 1455 Q399.879 1450.39 405.689 1450.39 Z" fill="#000000" fill-rule="nonzero" fill-opacity="1"></path><path clip-path="url(#clip080)" d="M425.851 1479.7 L430.735 1479.7 L430.735 1485.58 L425.851 1485.58 L425.851 1479.7 Z" fill="#000000" fill-rule="nonzero" fill-opacity="1"></path><path clip-path="url(#clip080)" d="M451.499 1466.44 Q448.351 1466.44 446.499 1468.59 Q444.67 1470.74 444.67 1474.49 Q444.67 1478.22 446.499 1480.39 Q448.351 1482.55 451.499 1482.55 Q454.647 1482.55 456.476 1480.39 Q458.328 1478.22 458.328 1474.49 Q458.328 1470.74 456.476 1468.59 Q454.647 1466.44 451.499 1466.44 M460.781 1451.78 L460.781 1456.04 Q459.022 1455.21 457.217 1454.77 Q455.434 1454.33 453.675 1454.33 Q449.045 1454.33 446.592 1457.45 Q444.161 1460.58 443.814 1466.9 Q445.18 1464.89 447.24 1463.82 Q449.3 1462.73 451.777 1462.73 Q456.985 1462.73 459.994 1465.9 Q463.027 1469.05 463.027 1474.49 Q463.027 1479.82 459.879 1483.03 Q456.73 1486.25 451.499 1486.25 Q445.504 1486.25 442.332 1481.67 Q439.161 1477.06 439.161 1468.33 Q439.161 1460.14 443.05 1455.28 Q446.939 1450.39 453.49 1450.39 Q455.249 1450.39 457.031 1450.74 Q458.837 1451.09 460.781 1451.78 Z" fill="#000000" fill-rule="nonzero" fill-opacity="1"></path><path clip-path="url(#clip080)" d="M805.386 1454.1 Q801.775 1454.1 799.946 1457.66 Q798.141 1461.2 798.141 1468.33 Q798.141 1475.44 799.946 1479.01 Q801.775 1482.55 805.386 1482.55 Q809.02 1482.55 810.826 1479.01 Q812.654 1475.44 812.654 1468.33 Q812.654 1461.2 810.826 1457.66 Q809.02 1454.1 805.386 1454.1 M805.386 1450.39 Q811.196 1450.39 814.252 1455 Q817.33 1459.58 817.33 1468.33 Q817.33 1477.06 814.252 1481.67 Q811.196 1486.25 805.386 1486.25 Q799.576 1486.25 796.497 1481.67 Q793.442 1477.06 793.442 1468.33 Q793.442 1459.58 796.497 1455 Q799.576 1450.39 805.386 1450.39 Z" fill="#000000" fill-rule="nonzero" fill-opacity="1"></path><path clip-path="url(#clip080)" d="M825.548 1479.7 L830.432 1479.7 L830.432 1485.58 L825.548 1485.58 L825.548 1479.7 Z" fill="#000000" fill-rule="nonzero" fill-opacity="1"></path><path clip-path="url(#clip080)" d="M840.756 1484.86 L840.756 1480.6 Q842.515 1481.44 844.321 1481.88 Q846.126 1482.32 847.863 1482.32 Q852.492 1482.32 854.923 1479.21 Q857.376 1476.09 857.724 1469.75 Q856.381 1471.74 854.321 1472.8 Q852.261 1473.87 849.761 1473.87 Q844.576 1473.87 841.543 1470.74 Q838.534 1467.59 838.534 1462.15 Q838.534 1456.83 841.682 1453.61 Q844.83 1450.39 850.062 1450.39 Q856.057 1450.39 859.205 1455 Q862.376 1459.58 862.376 1468.33 Q862.376 1476.51 858.487 1481.39 Q854.622 1486.25 848.071 1486.25 Q846.312 1486.25 844.506 1485.9 Q842.701 1485.56 840.756 1484.86 M850.062 1470.21 Q853.21 1470.21 855.038 1468.06 Q856.89 1465.9 856.89 1462.15 Q856.89 1458.43 855.038 1456.27 Q853.21 1454.1 850.062 1454.1 Q846.913 1454.1 845.062 1456.27 Q843.233 1458.43 843.233 1462.15 Q843.233 1465.9 845.062 1468.06 Q846.913 1470.21 850.062 1470.21 Z" fill="#000000" fill-rule="nonzero" fill-opacity="1"></path><path clip-path="url(#clip080)" d="M1195.38 1481.64 L1203.02 1481.64 L1203.02 1455.28 L1194.71 1456.95 L1194.71 1452.69 L1202.98 1451.02 L1207.65 1451.02 L1207.65 1481.64 L1215.29 1481.64 L1215.29 1485.58 L1195.38 1485.58 L1195.38 1481.64 Z" fill="#000000" fill-rule="nonzero" fill-opacity="1"></path><path clip-path="url(#clip080)" d="M1224.74 1479.7 L1229.62 1479.7 L1229.62 1485.58 L1224.74 1485.58 L1224.74 1479.7 Z" fill="#000000" fill-rule="nonzero" fill-opacity="1"></path><path clip-path="url(#clip080)" d="M1243.83 1481.64 L1260.15 1481.64 L1260.15 1485.58 L1238.21 1485.58 L1238.21 1481.64 Q1240.87 1478.89 1245.45 1474.26 Q1250.06 1469.61 1251.24 1468.27 Q1253.49 1465.74 1254.36 1464.01 Q1255.27 1462.25 1255.27 1460.56 Q1255.27 1457.8 1253.32 1456.07 Q1251.4 1454.33 1248.3 1454.33 Q1246.1 1454.33 1243.65 1455.09 Q1241.22 1455.86 1238.44 1457.41 L1238.44 1452.69 Q1241.26 1451.55 1243.72 1450.97 Q1246.17 1450.39 1248.21 1450.39 Q1253.58 1450.39 1256.77 1453.08 Q1259.97 1455.77 1259.97 1460.26 Q1259.97 1462.39 1259.16 1464.31 Q1258.37 1466.2 1256.26 1468.8 Q1255.68 1469.47 1252.58 1472.69 Q1249.48 1475.88 1243.83 1481.64 Z" fill="#000000" fill-rule="nonzero" fill-opacity="1"></path><path clip-path="url(#clip080)" d="M1594.61 1481.64 L1602.24 1481.64 L1602.24 1455.28 L1593.93 1456.95 L1593.93 1452.69 L1602.2 1451.02 L1606.87 1451.02 L1606.87 1481.64 L1614.51 1481.64 L1614.51 1485.58 L1594.61 1485.58 L1594.61 1481.64 Z" fill="#000000" fill-rule="nonzero" fill-opacity="1"></path><path clip-path="url(#clip080)" d="M1623.96 1479.7 L1628.84 1479.7 L1628.84 1485.58 L1623.96 1485.58 L1623.96 1479.7 Z" fill="#000000" fill-rule="nonzero" fill-opacity="1"></path><path clip-path="url(#clip080)" d="M1639.07 1451.02 L1657.43 1451.02 L1657.43 1454.96 L1643.36 1454.96 L1643.36 1463.43 Q1644.37 1463.08 1645.39 1462.92 Q1646.41 1462.73 1647.43 1462.73 Q1653.22 1462.73 1656.6 1465.9 Q1659.98 1469.08 1659.98 1474.49 Q1659.98 1480.07 1656.5 1483.17 Q1653.03 1486.25 1646.71 1486.25 Q1644.54 1486.25 1642.27 1485.88 Q1640.02 1485.51 1637.62 1484.77 L1637.62 1480.07 Q1639.7 1481.2 1641.92 1481.76 Q1644.14 1482.32 1646.62 1482.32 Q1650.62 1482.32 1652.96 1480.21 Q1655.3 1478.1 1655.3 1474.49 Q1655.3 1470.88 1652.96 1468.77 Q1650.62 1466.67 1646.62 1466.67 Q1644.74 1466.67 1642.87 1467.08 Q1641.02 1467.5 1639.07 1468.38 L1639.07 1451.02 Z" fill="#000000" fill-rule="nonzero" fill-opacity="1"></path><path clip-path="url(#clip080)" d="M1993.68 1481.64 L2001.32 1481.64 L2001.32 1455.28 L1993.01 1456.95 L1993.01 1452.69 L2001.27 1451.02 L2005.95 1451.02 L2005.95 1481.64 L2013.59 1481.64 L2013.59 1485.58 L1993.68 1485.58 L1993.68 1481.64 Z" fill="#000000" fill-rule="nonzero" fill-opacity="1"></path><path clip-path="url(#clip080)" d="M2023.03 1479.7 L2027.91 1479.7 L2027.91 1485.58 L2023.03 1485.58 L2023.03 1479.7 Z" fill="#000000" fill-rule="nonzero" fill-opacity="1"></path><path clip-path="url(#clip080)" d="M2048.1 1469.17 Q2044.77 1469.17 2042.84 1470.95 Q2040.95 1472.73 2040.95 1475.86 Q2040.95 1478.98 2042.84 1480.77 Q2044.77 1482.55 2048.1 1482.55 Q2051.43 1482.55 2053.35 1480.77 Q2055.27 1478.96 2055.27 1475.86 Q2055.27 1472.73 2053.35 1470.95 Q2051.46 1469.17 2048.1 1469.17 M2043.42 1467.18 Q2040.41 1466.44 2038.72 1464.38 Q2037.06 1462.32 2037.06 1459.35 Q2037.06 1455.21 2040 1452.8 Q2042.96 1450.39 2048.1 1450.39 Q2053.26 1450.39 2056.2 1452.8 Q2059.14 1455.21 2059.14 1459.35 Q2059.14 1462.32 2057.45 1464.38 Q2055.78 1466.44 2052.8 1467.18 Q2056.18 1467.96 2058.05 1470.26 Q2059.95 1472.55 2059.95 1475.86 Q2059.95 1480.88 2056.87 1483.57 Q2053.82 1486.25 2048.1 1486.25 Q2042.38 1486.25 2039.3 1483.57 Q2036.25 1480.88 2036.25 1475.86 Q2036.25 1472.55 2038.15 1470.26 Q2040.04 1467.96 2043.42 1467.18 M2041.71 1459.79 Q2041.71 1462.48 2043.38 1463.98 Q2045.07 1465.49 2048.1 1465.49 Q2051.11 1465.49 2052.8 1463.98 Q2054.51 1462.48 2054.51 1459.79 Q2054.51 1457.11 2052.8 1455.6 Q2051.11 1454.1 2048.1 1454.1 Q2045.07 1454.1 2043.38 1455.6 Q2041.71 1457.11 2041.71 1459.79 Z" fill="#000000" fill-rule="nonzero" fill-opacity="1"></path><path clip-path="url(#clip080)" d="M1202.74 1536.5 Q1198.02 1536.5 1195.29 1540.19 Q1192.55 1543.85 1192.55 1550.25 Q1192.55 1556.65 1195.26 1560.34 Q1197.99 1564 1202.74 1564 Q1207.41 1564 1210.15 1560.31 Q1212.89 1556.62 1212.89 1550.25 Q1212.89 1543.92 1210.15 1540.23 Q1207.41 1536.5 1202.74 1536.5 M1202.74 1531.54 Q1210.37 1531.54 1214.73 1536.5 Q1219.1 1541.47 1219.1 1550.25 Q1219.1 1559 1214.73 1564 Q1210.37 1568.97 1202.74 1568.97 Q1195.06 1568.97 1190.7 1564 Q1186.38 1559 1186.38 1550.25 Q1186.38 1541.47 1190.7 1536.5 Q1195.06 1531.54 1202.74 1531.54 Z" fill="#000000" fill-rule="nonzero" fill-opacity="1"></path><path clip-path="url(#clip080)" d="M1256.56 1539.24 Q1258.75 1535.29 1261.81 1533.41 Q1264.86 1531.54 1269 1531.54 Q1274.57 1531.54 1277.6 1535.45 Q1280.62 1539.33 1280.62 1546.53 L1280.62 1568.04 L1274.73 1568.04 L1274.73 1546.72 Q1274.73 1541.59 1272.92 1539.11 Q1271.1 1536.63 1267.38 1536.63 Q1262.83 1536.63 1260.19 1539.65 Q1257.54 1542.68 1257.54 1547.9 L1257.54 1568.04 L1251.66 1568.04 L1251.66 1546.72 Q1251.66 1541.56 1249.84 1539.11 Q1248.03 1536.63 1244.24 1536.63 Q1239.75 1536.63 1237.11 1539.68 Q1234.47 1542.71 1234.47 1547.9 L1234.47 1568.04 L1228.58 1568.04 L1228.58 1532.4 L1234.47 1532.4 L1234.47 1537.93 Q1236.47 1534.66 1239.27 1533.1 Q1242.08 1531.54 1245.93 1531.54 Q1249.81 1531.54 1252.51 1533.51 Q1255.25 1535.48 1256.56 1539.24 Z" fill="#000000" fill-rule="nonzero" fill-opacity="1"></path><path clip-path="url(#clip080)" d="M1322.79 1548.76 L1322.79 1551.62 L1295.87 1551.62 Q1296.25 1557.67 1299.49 1560.85 Q1302.77 1564 1308.6 1564 Q1311.97 1564 1315.12 1563.17 Q1318.3 1562.35 1321.42 1560.69 L1321.42 1566.23 Q1318.27 1567.57 1314.96 1568.27 Q1311.65 1568.97 1308.25 1568.97 Q1299.72 1568.97 1294.72 1564 Q1289.75 1559.04 1289.75 1550.57 Q1289.75 1541.82 1294.46 1536.69 Q1299.21 1531.54 1307.23 1531.54 Q1314.42 1531.54 1318.59 1536.18 Q1322.79 1540.8 1322.79 1548.76 M1316.94 1547.04 Q1316.87 1542.23 1314.23 1539.37 Q1311.62 1536.5 1307.29 1536.5 Q1302.39 1536.5 1299.43 1539.27 Q1296.5 1542.04 1296.06 1547.07 L1316.94 1547.04 Z" fill="#000000" fill-rule="nonzero" fill-opacity="1"></path><path clip-path="url(#clip080)" d="M1355.86 1549.81 Q1355.86 1543.44 1353.22 1539.94 Q1350.61 1536.44 1345.87 1536.44 Q1341.16 1536.44 1338.52 1539.94 Q1335.91 1543.44 1335.91 1549.81 Q1335.91 1556.14 1338.52 1559.64 Q1341.16 1563.14 1345.87 1563.14 Q1350.61 1563.14 1353.22 1559.64 Q1355.86 1556.14 1355.86 1549.81 M1361.72 1563.62 Q1361.72 1572.72 1357.68 1577.15 Q1353.63 1581.6 1345.3 1581.6 Q1342.21 1581.6 1339.47 1581.13 Q1336.73 1580.68 1334.16 1579.72 L1334.16 1574.03 Q1336.73 1575.43 1339.25 1576.1 Q1341.76 1576.76 1344.37 1576.76 Q1350.13 1576.76 1353 1573.74 Q1355.86 1570.75 1355.86 1564.67 L1355.86 1561.77 Q1354.05 1564.92 1351.22 1566.48 Q1348.38 1568.04 1344.44 1568.04 Q1337.88 1568.04 1333.87 1563.05 Q1329.86 1558.05 1329.86 1549.81 Q1329.86 1541.53 1333.87 1536.53 Q1337.88 1531.54 1344.44 1531.54 Q1348.38 1531.54 1351.22 1533.1 Q1354.05 1534.66 1355.86 1537.81 L1355.86 1532.4 L1361.72 1532.4 L1361.72 1563.62 Z" fill="#000000" fill-rule="nonzero" fill-opacity="1"></path><path clip-path="url(#clip080)" d="M1389.98 1550.12 Q1382.88 1550.12 1380.15 1551.75 Q1377.41 1553.37 1377.41 1557.29 Q1377.41 1560.4 1379.45 1562.25 Q1381.52 1564.07 1385.05 1564.07 Q1389.92 1564.07 1392.85 1560.63 Q1395.81 1557.16 1395.81 1551.43 L1395.81 1550.12 L1389.98 1550.12 M1401.66 1547.71 L1401.66 1568.04 L1395.81 1568.04 L1395.81 1562.63 Q1393.8 1565.88 1390.81 1567.44 Q1387.82 1568.97 1383.49 1568.97 Q1378.01 1568.97 1374.77 1565.91 Q1371.55 1562.82 1371.55 1557.67 Q1371.55 1551.65 1375.56 1548.6 Q1379.61 1545.54 1387.6 1545.54 L1395.81 1545.54 L1395.81 1544.97 Q1395.81 1540.93 1393.13 1538.73 Q1390.49 1536.5 1385.69 1536.5 Q1382.63 1536.5 1379.73 1537.23 Q1376.84 1537.97 1374.16 1539.43 L1374.16 1534.02 Q1377.38 1532.78 1380.4 1532.17 Q1383.43 1531.54 1386.29 1531.54 Q1394.02 1531.54 1397.84 1535.55 Q1401.66 1539.56 1401.66 1547.71 Z" fill="#000000" fill-rule="nonzero" fill-opacity="1"></path><polyline clip-path="url(#clip082)" style="stroke:#000000; stroke-linecap:round; stroke-linejoin:round; stroke-width:2; stroke-opacity:0.1; fill:none" points="235.283,1413.98 2352.76,1413.98 "></polyline>
<polyline clip-path="url(#clip082)" style="stroke:#000000; stroke-linecap:round; stroke-linejoin:round; stroke-width:2; stroke-opacity:0.1; fill:none" points="235.283,1163.23 2352.76,1163.23 "></polyline>
<polyline clip-path="url(#clip082)" style="stroke:#000000; stroke-linecap:round; stroke-linejoin:round; stroke-width:2; stroke-opacity:0.1; fill:none" points="235.283,912.489 2352.76,912.489 "></polyline>
<polyline clip-path="url(#clip082)" style="stroke:#000000; stroke-linecap:round; stroke-linejoin:round; stroke-width:2; stroke-opacity:0.1; fill:none" points="235.283,661.745 2352.76,661.745 "></polyline>
<polyline clip-path="url(#clip082)" style="stroke:#000000; stroke-linecap:round; stroke-linejoin:round; stroke-width:2; stroke-opacity:0.1; fill:none" points="235.283,411.001 2352.76,411.001 "></polyline>
<polyline clip-path="url(#clip082)" style="stroke:#000000; stroke-linecap:round; stroke-linejoin:round; stroke-width:2; stroke-opacity:0.1; fill:none" points="235.283,160.256 2352.76,160.256 "></polyline>
<polyline clip-path="url(#clip080)" style="stroke:#000000; stroke-linecap:round; stroke-linejoin:round; stroke-width:4; stroke-opacity:1; fill:none" points="235.283,1423.18 235.283,123.472 "></polyline>
<polyline clip-path="url(#clip080)" style="stroke:#000000; stroke-linecap:round; stroke-linejoin:round; stroke-width:4; stroke-opacity:1; fill:none" points="235.283,1413.98 254.18,1413.98 "></polyline>
<polyline clip-path="url(#clip080)" style="stroke:#000000; stroke-linecap:round; stroke-linejoin:round; stroke-width:4; stroke-opacity:1; fill:none" points="235.283,1163.23 254.18,1163.23 "></polyline>
<polyline clip-path="url(#clip080)" style="stroke:#000000; stroke-linecap:round; stroke-linejoin:round; stroke-width:4; stroke-opacity:1; fill:none" points="235.283,912.489 254.18,912.489 "></polyline>
<polyline clip-path="url(#clip080)" style="stroke:#000000; stroke-linecap:round; stroke-linejoin:round; stroke-width:4; stroke-opacity:1; fill:none" points="235.283,661.745 254.18,661.745 "></polyline>
<polyline clip-path="url(#clip080)" style="stroke:#000000; stroke-linecap:round; stroke-linejoin:round; stroke-width:4; stroke-opacity:1; fill:none" points="235.283,411.001 254.18,411.001 "></polyline>
<polyline clip-path="url(#clip080)" style="stroke:#000000; stroke-linecap:round; stroke-linejoin:round; stroke-width:4; stroke-opacity:1; fill:none" points="235.283,160.256 254.18,160.256 "></polyline>
<path clip-path="url(#clip080)" d="M187.338 1399.78 Q183.727 1399.78 181.899 1403.34 Q180.093 1406.88 180.093 1414.01 Q180.093 1421.12 181.899 1424.68 Q183.727 1428.23 187.338 1428.23 Q190.973 1428.23 192.778 1424.68 Q194.607 1421.12 194.607 1414.01 Q194.607 1406.88 192.778 1403.34 Q190.973 1399.78 187.338 1399.78 M187.338 1396.07 Q193.149 1396.07 196.204 1400.68 Q199.283 1405.26 199.283 1414.01 Q199.283 1422.74 196.204 1427.35 Q193.149 1431.93 187.338 1431.93 Q181.528 1431.93 178.45 1427.35 Q175.394 1422.74 175.394 1414.01 Q175.394 1405.26 178.45 1400.68 Q181.528 1396.07 187.338 1396.07 Z" fill="#000000" fill-rule="nonzero" fill-opacity="1"></path><path clip-path="url(#clip080)" d="M117.825 1176.58 L125.464 1176.58 L125.464 1150.21 L117.154 1151.88 L117.154 1147.62 L125.418 1145.95 L130.093 1145.95 L130.093 1176.58 L137.732 1176.58 L137.732 1180.51 L117.825 1180.51 L117.825 1176.58 Z" fill="#000000" fill-rule="nonzero" fill-opacity="1"></path><path clip-path="url(#clip080)" d="M157.177 1149.03 Q153.566 1149.03 151.737 1152.6 Q149.931 1156.14 149.931 1163.27 Q149.931 1170.37 151.737 1173.94 Q153.566 1177.48 157.177 1177.48 Q160.811 1177.48 162.616 1173.94 Q164.445 1170.37 164.445 1163.27 Q164.445 1156.14 162.616 1152.6 Q160.811 1149.03 157.177 1149.03 M157.177 1145.33 Q162.987 1145.33 166.042 1149.93 Q169.121 1154.52 169.121 1163.27 Q169.121 1171.99 166.042 1176.6 Q162.987 1181.18 157.177 1181.18 Q151.366 1181.18 148.288 1176.6 Q145.232 1171.99 145.232 1163.27 Q145.232 1154.52 148.288 1149.93 Q151.366 1145.33 157.177 1145.33 Z" fill="#000000" fill-rule="nonzero" fill-opacity="1"></path><path clip-path="url(#clip080)" d="M187.338 1149.03 Q183.727 1149.03 181.899 1152.6 Q180.093 1156.14 180.093 1163.27 Q180.093 1170.37 181.899 1173.94 Q183.727 1177.48 187.338 1177.48 Q190.973 1177.48 192.778 1173.94 Q194.607 1170.37 194.607 1163.27 Q194.607 1156.14 192.778 1152.6 Q190.973 1149.03 187.338 1149.03 M187.338 1145.33 Q193.149 1145.33 196.204 1149.93 Q199.283 1154.52 199.283 1163.27 Q199.283 1171.99 196.204 1176.6 Q193.149 1181.18 187.338 1181.18 Q181.528 1181.18 178.45 1176.6 Q175.394 1171.99 175.394 1163.27 Q175.394 1154.52 178.45 1149.93 Q181.528 1145.33 187.338 1145.33 Z" fill="#000000" fill-rule="nonzero" fill-opacity="1"></path><path clip-path="url(#clip080)" d="M121.043 925.834 L137.362 925.834 L137.362 929.769 L115.418 929.769 L115.418 925.834 Q118.08 923.079 122.663 918.45 Q127.269 913.797 128.45 912.454 Q130.695 909.931 131.575 908.195 Q132.478 906.436 132.478 904.746 Q132.478 901.991 130.533 900.255 Q128.612 898.519 125.51 898.519 Q123.311 898.519 120.857 899.283 Q118.427 900.047 115.649 901.598 L115.649 896.876 Q118.473 895.741 120.927 895.163 Q123.38 894.584 125.418 894.584 Q130.788 894.584 133.982 897.269 Q137.177 899.954 137.177 904.445 Q137.177 906.575 136.367 908.496 Q135.579 910.394 133.473 912.987 Q132.894 913.658 129.792 916.876 Q126.691 920.07 121.043 925.834 Z" fill="#000000" fill-rule="nonzero" fill-opacity="1"></path><path clip-path="url(#clip080)" d="M157.177 898.288 Q153.566 898.288 151.737 901.853 Q149.931 905.394 149.931 912.524 Q149.931 919.63 151.737 923.195 Q153.566 926.737 157.177 926.737 Q160.811 926.737 162.616 923.195 Q164.445 919.63 164.445 912.524 Q164.445 905.394 162.616 901.853 Q160.811 898.288 157.177 898.288 M157.177 894.584 Q162.987 894.584 166.042 899.191 Q169.121 903.774 169.121 912.524 Q169.121 921.251 166.042 925.857 Q162.987 930.44 157.177 930.44 Q151.366 930.44 148.288 925.857 Q145.232 921.251 145.232 912.524 Q145.232 903.774 148.288 899.191 Q151.366 894.584 157.177 894.584 Z" fill="#000000" fill-rule="nonzero" fill-opacity="1"></path><path clip-path="url(#clip080)" d="M187.338 898.288 Q183.727 898.288 181.899 901.853 Q180.093 905.394 180.093 912.524 Q180.093 919.63 181.899 923.195 Q183.727 926.737 187.338 926.737 Q190.973 926.737 192.778 923.195 Q194.607 919.63 194.607 912.524 Q194.607 905.394 192.778 901.853 Q190.973 898.288 187.338 898.288 M187.338 894.584 Q193.149 894.584 196.204 899.191 Q199.283 903.774 199.283 912.524 Q199.283 921.251 196.204 925.857 Q193.149 930.44 187.338 930.44 Q181.528 930.44 178.45 925.857 Q175.394 921.251 175.394 912.524 Q175.394 903.774 178.45 899.191 Q181.528 894.584 187.338 894.584 Z" fill="#000000" fill-rule="nonzero" fill-opacity="1"></path><path clip-path="url(#clip080)" d="M131.181 660.391 Q134.538 661.108 136.413 663.377 Q138.311 665.645 138.311 668.979 Q138.311 674.094 134.792 676.895 Q131.274 679.696 124.793 679.696 Q122.617 679.696 120.302 679.256 Q118.01 678.84 115.556 677.983 L115.556 673.469 Q117.501 674.604 119.816 675.182 Q122.13 675.761 124.654 675.761 Q129.052 675.761 131.343 674.025 Q133.658 672.289 133.658 668.979 Q133.658 665.923 131.505 664.21 Q129.376 662.474 125.556 662.474 L121.529 662.474 L121.529 658.631 L125.742 658.631 Q129.191 658.631 131.019 657.266 Q132.848 655.877 132.848 653.284 Q132.848 650.622 130.95 649.21 Q129.075 647.775 125.556 647.775 Q123.635 647.775 121.436 648.192 Q119.237 648.608 116.598 649.488 L116.598 645.321 Q119.26 644.581 121.575 644.21 Q123.913 643.84 125.973 643.84 Q131.297 643.84 134.399 646.27 Q137.501 648.678 137.501 652.798 Q137.501 655.668 135.857 657.659 Q134.214 659.627 131.181 660.391 Z" fill="#000000" fill-rule="nonzero" fill-opacity="1"></path><path clip-path="url(#clip080)" d="M157.177 647.543 Q153.566 647.543 151.737 651.108 Q149.931 654.65 149.931 661.78 Q149.931 668.886 151.737 672.451 Q153.566 675.992 157.177 675.992 Q160.811 675.992 162.616 672.451 Q164.445 668.886 164.445 661.78 Q164.445 654.65 162.616 651.108 Q160.811 647.543 157.177 647.543 M157.177 643.84 Q162.987 643.84 166.042 648.446 Q169.121 653.03 169.121 661.78 Q169.121 670.506 166.042 675.113 Q162.987 679.696 157.177 679.696 Q151.366 679.696 148.288 675.113 Q145.232 670.506 145.232 661.78 Q145.232 653.03 148.288 648.446 Q151.366 643.84 157.177 643.84 Z" fill="#000000" fill-rule="nonzero" fill-opacity="1"></path><path clip-path="url(#clip080)" d="M187.338 647.543 Q183.727 647.543 181.899 651.108 Q180.093 654.65 180.093 661.78 Q180.093 668.886 181.899 672.451 Q183.727 675.992 187.338 675.992 Q190.973 675.992 192.778 672.451 Q194.607 668.886 194.607 661.78 Q194.607 654.65 192.778 651.108 Q190.973 647.543 187.338 647.543 M187.338 643.84 Q193.149 643.84 196.204 648.446 Q199.283 653.03 199.283 661.78 Q199.283 670.506 196.204 675.113 Q193.149 679.696 187.338 679.696 Q181.528 679.696 178.45 675.113 Q175.394 670.506 175.394 661.78 Q175.394 653.03 178.45 648.446 Q181.528 643.84 187.338 643.84 Z" fill="#000000" fill-rule="nonzero" fill-opacity="1"></path><path clip-path="url(#clip080)" d="M129.862 397.795 L118.056 416.244 L129.862 416.244 L129.862 397.795 M128.635 393.721 L134.515 393.721 L134.515 416.244 L139.445 416.244 L139.445 420.132 L134.515 420.132 L134.515 428.281 L129.862 428.281 L129.862 420.132 L114.26 420.132 L114.26 415.619 L128.635 393.721 Z" fill="#000000" fill-rule="nonzero" fill-opacity="1"></path><path clip-path="url(#clip080)" d="M157.177 396.799 Q153.566 396.799 151.737 400.364 Q149.931 403.906 149.931 411.035 Q149.931 418.142 151.737 421.707 Q153.566 425.248 157.177 425.248 Q160.811 425.248 162.616 421.707 Q164.445 418.142 164.445 411.035 Q164.445 403.906 162.616 400.364 Q160.811 396.799 157.177 396.799 M157.177 393.096 Q162.987 393.096 166.042 397.702 Q169.121 402.285 169.121 411.035 Q169.121 419.762 166.042 424.369 Q162.987 428.952 157.177 428.952 Q151.366 428.952 148.288 424.369 Q145.232 419.762 145.232 411.035 Q145.232 402.285 148.288 397.702 Q151.366 393.096 157.177 393.096 Z" fill="#000000" fill-rule="nonzero" fill-opacity="1"></path><path clip-path="url(#clip080)" d="M187.338 396.799 Q183.727 396.799 181.899 400.364 Q180.093 403.906 180.093 411.035 Q180.093 418.142 181.899 421.707 Q183.727 425.248 187.338 425.248 Q190.973 425.248 192.778 421.707 Q194.607 418.142 194.607 411.035 Q194.607 403.906 192.778 400.364 Q190.973 396.799 187.338 396.799 M187.338 393.096 Q193.149 393.096 196.204 397.702 Q199.283 402.285 199.283 411.035 Q199.283 419.762 196.204 424.369 Q193.149 428.952 187.338 428.952 Q181.528 428.952 178.45 424.369 Q175.394 419.762 175.394 411.035 Q175.394 402.285 178.45 397.702 Q181.528 393.096 187.338 393.096 Z" fill="#000000" fill-rule="nonzero" fill-opacity="1"></path><path clip-path="url(#clip080)" d="M117.061 142.976 L135.417 142.976 L135.417 146.911 L121.343 146.911 L121.343 155.384 Q122.362 155.036 123.38 154.874 Q124.399 154.689 125.418 154.689 Q131.205 154.689 134.584 157.86 Q137.964 161.032 137.964 166.448 Q137.964 172.027 134.492 175.129 Q131.019 178.208 124.7 178.208 Q122.524 178.208 120.255 177.837 Q118.01 177.467 115.603 176.726 L115.603 172.027 Q117.686 173.161 119.908 173.717 Q122.13 174.272 124.607 174.272 Q128.612 174.272 130.95 172.166 Q133.288 170.059 133.288 166.448 Q133.288 162.837 130.95 160.731 Q128.612 158.624 124.607 158.624 Q122.732 158.624 120.857 159.041 Q119.006 159.458 117.061 160.337 L117.061 142.976 Z" fill="#000000" fill-rule="nonzero" fill-opacity="1"></path><path clip-path="url(#clip080)" d="M157.177 146.055 Q153.566 146.055 151.737 149.62 Q149.931 153.161 149.931 160.291 Q149.931 167.397 151.737 170.962 Q153.566 174.504 157.177 174.504 Q160.811 174.504 162.616 170.962 Q164.445 167.397 164.445 160.291 Q164.445 153.161 162.616 149.62 Q160.811 146.055 157.177 146.055 M157.177 142.351 Q162.987 142.351 166.042 146.958 Q169.121 151.541 169.121 160.291 Q169.121 169.018 166.042 173.624 Q162.987 178.208 157.177 178.208 Q151.366 178.208 148.288 173.624 Q145.232 169.018 145.232 160.291 Q145.232 151.541 148.288 146.958 Q151.366 142.351 157.177 142.351 Z" fill="#000000" fill-rule="nonzero" fill-opacity="1"></path><path clip-path="url(#clip080)" d="M187.338 146.055 Q183.727 146.055 181.899 149.62 Q180.093 153.161 180.093 160.291 Q180.093 167.397 181.899 170.962 Q183.727 174.504 187.338 174.504 Q190.973 174.504 192.778 170.962 Q194.607 167.397 194.607 160.291 Q194.607 153.161 192.778 149.62 Q190.973 146.055 187.338 146.055 M187.338 142.351 Q193.149 142.351 196.204 146.958 Q199.283 151.541 199.283 160.291 Q199.283 169.018 196.204 173.624 Q193.149 178.208 187.338 178.208 Q181.528 178.208 178.45 173.624 Q175.394 169.018 175.394 160.291 Q175.394 151.541 178.45 146.958 Q181.528 142.351 187.338 142.351 Z" fill="#000000" fill-rule="nonzero" fill-opacity="1"></path><path clip-path="url(#clip080)" d="M46.212 925.514 Q39.7508 925.514 36.0905 928.188 Q32.3984 930.829 32.3984 935.476 Q32.3984 940.123 36.0905 942.797 Q39.7508 945.439 46.212 945.439 Q52.6732 945.439 56.3653 942.797 Q60.0256 940.123 60.0256 935.476 Q60.0256 930.829 56.3653 928.188 Q52.6732 925.514 46.212 925.514 M33.7671 945.439 Q30.5842 943.593 29.0564 940.792 Q27.4968 937.959 27.4968 934.044 Q27.4968 927.551 32.6531 923.509 Q37.8093 919.435 46.212 919.435 Q54.6147 919.435 59.771 923.509 Q64.9272 927.551 64.9272 934.044 Q64.9272 937.959 63.3994 940.792 Q61.8398 943.593 58.657 945.439 L64.0042 945.439 L64.0042 951.327 L14.479 951.327 L14.479 945.439 L33.7671 945.439 Z" fill="#000000" fill-rule="nonzero" fill-opacity="1"></path><path clip-path="url(#clip080)" d="M33.8307 889.07 Q33.2578 890.057 33.0032 891.235 Q32.7167 892.381 32.7167 893.781 Q32.7167 898.746 35.9632 901.42 Q39.1779 904.062 45.2253 904.062 L64.0042 904.062 L64.0042 909.95 L28.3562 909.95 L28.3562 904.062 L33.8944 904.062 Q30.6479 902.216 29.0883 899.256 Q27.4968 896.296 27.4968 892.062 Q27.4968 891.458 27.5923 890.726 Q27.656 889.993 27.8151 889.102 L33.8307 889.07 Z" fill="#000000" fill-rule="nonzero" fill-opacity="1"></path><path clip-path="url(#clip080)" d="M32.4621 870.546 Q32.4621 875.257 36.1542 877.994 Q39.8145 880.731 46.212 880.731 Q52.6095 880.731 56.3017 878.026 Q59.9619 875.289 59.9619 870.546 Q59.9619 865.867 56.2698 863.13 Q52.5777 860.393 46.212 860.393 Q39.8781 860.393 36.186 863.13 Q32.4621 865.867 32.4621 870.546 M27.4968 870.546 Q27.4968 862.907 32.4621 858.547 Q37.4273 854.186 46.212 854.186 Q54.9649 854.186 59.9619 858.547 Q64.9272 862.907 64.9272 870.546 Q64.9272 878.217 59.9619 882.577 Q54.9649 886.906 46.212 886.906 Q37.4273 886.906 32.4621 882.577 Q27.4968 878.217 27.4968 870.546 Z" fill="#000000" fill-rule="nonzero" fill-opacity="1"></path><path clip-path="url(#clip080)" d="M28.3562 844.479 L28.3562 838.622 L64.6407 838.622 Q71.452 838.622 74.5076 841.232 Q77.5631 843.81 77.5631 849.571 L77.5631 851.799 L72.5979 851.799 L72.5979 850.24 Q72.5979 846.898 71.0383 845.688 Q69.5105 844.479 64.6407 844.479 L28.3562 844.479 M14.479 844.479 L14.479 838.622 L21.895 838.622 L21.895 844.479 L14.479 844.479 Z" fill="#000000" fill-rule="nonzero" fill-opacity="1"></path><path clip-path="url(#clip080)" d="M28.3562 805.648 L28.3562 799.791 L64.0042 799.791 L64.0042 805.648 L28.3562 805.648 M14.479 805.648 L14.479 799.791 L21.895 799.791 L21.895 805.648 L14.479 805.648 Z" fill="#000000" fill-rule="nonzero" fill-opacity="1"></path><path clip-path="url(#clip080)" d="M18.2347 781.745 L28.3562 781.745 L28.3562 769.682 L32.9077 769.682 L32.9077 781.745 L52.2594 781.745 Q56.6199 781.745 57.8613 780.567 Q59.1026 779.357 59.1026 775.697 L59.1026 769.682 L64.0042 769.682 L64.0042 775.697 Q64.0042 782.477 61.4897 785.055 Q58.9434 787.633 52.2594 787.633 L32.9077 787.633 L32.9077 791.93 L28.3562 791.93 L28.3562 787.633 L18.2347 787.633 L18.2347 781.745 Z" fill="#000000" fill-rule="nonzero" fill-opacity="1"></path><path clip-path="url(#clip080)" d="M44.7161 731.487 L47.5806 731.487 L47.5806 758.414 Q53.6281 758.032 56.8109 754.786 Q59.9619 751.508 59.9619 745.683 Q59.9619 742.309 59.1344 739.158 Q58.3069 735.975 56.6518 732.856 L62.1899 732.856 Q63.5267 736.007 64.227 739.317 Q64.9272 742.627 64.9272 746.033 Q64.9272 754.563 59.9619 759.56 Q54.9967 764.525 46.5303 764.525 Q37.7774 764.525 32.6531 759.815 Q27.4968 755.072 27.4968 747.052 Q27.4968 739.858 32.1438 735.689 Q36.7589 731.487 44.7161 731.487 M42.9973 737.344 Q38.1912 737.407 35.3266 740.049 Q32.4621 742.659 32.4621 746.988 Q32.4621 751.889 35.2312 754.85 Q38.0002 757.778 43.0292 758.223 L42.9973 737.344 Z" fill="#000000" fill-rule="nonzero" fill-opacity="1"></path><path clip-path="url(#clip080)" d="M33.8307 701.218 Q33.2578 702.205 33.0032 703.383 Q32.7167 704.529 32.7167 705.929 Q32.7167 710.894 35.9632 713.568 Q39.1779 716.21 45.2253 716.21 L64.0042 716.21 L64.0042 722.098 L28.3562 722.098 L28.3562 716.21 L33.8944 716.21 Q30.6479 714.364 29.0883 711.404 Q27.4968 708.444 27.4968 704.21 Q27.4968 703.606 27.5923 702.874 Q27.656 702.141 27.8151 701.25 L33.8307 701.218 Z" fill="#000000" fill-rule="nonzero" fill-opacity="1"></path><path clip-path="url(#clip080)" d="M46.0847 678.875 Q46.0847 685.973 47.7079 688.71 Q49.3312 691.447 53.2461 691.447 Q56.3653 691.447 58.2114 689.41 Q60.0256 687.341 60.0256 683.808 Q60.0256 678.938 56.5881 676.01 Q53.1188 673.05 47.3897 673.05 L46.0847 673.05 L46.0847 678.875 M43.6657 667.194 L64.0042 667.194 L64.0042 673.05 L58.5933 673.05 Q61.8398 675.055 63.3994 678.047 Q64.9272 681.039 64.9272 685.368 Q64.9272 690.842 61.8716 694.089 Q58.7843 697.304 53.6281 697.304 Q47.6125 697.304 44.5569 693.293 Q41.5014 689.251 41.5014 681.262 L41.5014 673.05 L40.9285 673.05 Q36.8862 673.05 34.6901 675.724 Q32.4621 678.366 32.4621 683.172 Q32.4621 686.227 33.1941 689.124 Q33.9262 692.02 35.3903 694.694 L29.9795 694.694 Q28.7381 691.479 28.1334 688.455 Q27.4968 685.431 27.4968 682.567 Q27.4968 674.833 31.5072 671.013 Q35.5176 667.194 43.6657 667.194 Z" fill="#000000" fill-rule="nonzero" fill-opacity="1"></path><path clip-path="url(#clip080)" d="M29.7248 629.477 L35.1993 629.477 Q33.8307 631.96 33.1623 634.474 Q32.4621 636.957 32.4621 639.503 Q32.4621 645.2 36.0905 648.351 Q39.6872 651.502 46.212 651.502 Q52.7369 651.502 56.3653 648.351 Q59.9619 645.2 59.9619 639.503 Q59.9619 636.957 59.2935 634.474 Q58.5933 631.96 57.2247 629.477 L62.6355 629.477 Q63.7814 631.928 64.3543 634.569 Q64.9272 637.179 64.9272 640.139 Q64.9272 648.192 59.8664 652.935 Q54.8057 657.677 46.212 657.677 Q37.491 657.677 32.4939 652.903 Q27.4968 648.097 27.4968 639.758 Q27.4968 637.052 28.0697 634.474 Q28.6108 631.896 29.7248 629.477 Z" fill="#000000" fill-rule="nonzero" fill-opacity="1"></path><path clip-path="url(#clip080)" d="M28.3562 619.292 L28.3562 613.435 L64.0042 613.435 L64.0042 619.292 L28.3562 619.292 M14.479 619.292 L14.479 613.435 L21.895 613.435 L21.895 619.292 L14.479 619.292 Z" fill="#000000" fill-rule="nonzero" fill-opacity="1"></path><path clip-path="url(#clip080)" d="M28.3562 601.181 L28.3562 595.325 L64.6407 595.325 Q71.452 595.325 74.5076 597.935 Q77.5631 600.513 77.5631 606.274 L77.5631 608.502 L72.5979 608.502 L72.5979 606.942 Q72.5979 603.6 71.0383 602.391 Q69.5105 601.181 64.6407 601.181 L28.3562 601.181 M14.479 601.181 L14.479 595.325 L21.895 595.325 L21.895 601.181 L14.479 601.181 Z" fill="#000000" fill-rule="nonzero" fill-opacity="1"></path><path clip-path="url(#clip080)" d="M321.458 17.6457 Q312.546 17.6457 307.28 24.2892 Q302.054 30.9327 302.054 42.3968 Q302.054 53.8203 307.28 60.4638 Q312.546 67.1073 321.458 67.1073 Q330.37 67.1073 335.555 60.4638 Q340.781 53.8203 340.781 42.3968 Q340.781 30.9327 335.555 24.2892 Q330.37 17.6457 321.458 17.6457 M321.458 11.0023 Q334.178 11.0023 341.794 19.5497 Q349.409 28.0566 349.409 42.3968 Q349.409 56.6965 341.794 65.2439 Q334.178 73.7508 321.458 73.7508 Q308.698 73.7508 301.041 65.2439 Q293.426 56.737 293.426 42.3968 Q293.426 28.0566 301.041 19.5497 Q308.698 11.0023 321.458 11.0023 Z" fill="#000000" fill-rule="nonzero" fill-opacity="1"></path><path clip-path="url(#clip080)" d="M391.741 34.0924 L391.741 9.54393 L399.195 9.54393 L399.195 72.576 L391.741 72.576 L391.741 65.7705 Q389.392 69.8214 385.786 71.8063 Q382.222 73.7508 377.198 73.7508 Q368.975 73.7508 363.79 67.1883 Q358.645 60.6258 358.645 49.9314 Q358.645 39.2371 363.79 32.6746 Q368.975 26.1121 377.198 26.1121 Q382.222 26.1121 385.786 28.0971 Q389.392 30.0415 391.741 34.0924 M366.342 49.9314 Q366.342 58.1548 369.704 62.8538 Q373.107 67.5124 379.021 67.5124 Q384.936 67.5124 388.338 62.8538 Q391.741 58.1548 391.741 49.9314 Q391.741 41.7081 388.338 37.0496 Q384.936 32.3505 379.021 32.3505 Q373.107 32.3505 369.704 37.0496 Q366.342 41.7081 366.342 49.9314 Z" fill="#000000" fill-rule="nonzero" fill-opacity="1"></path><path clip-path="url(#clip080)" d="M409.201 27.2059 L417.1 27.2059 L431.278 65.2844 L445.456 27.2059 L453.355 27.2059 L436.342 72.576 L426.214 72.576 L409.201 27.2059 Z" fill="#000000" fill-rule="nonzero" fill-opacity="1"></path><path clip-path="url(#clip080)" d="M463.645 27.2059 L471.098 27.2059 L471.098 72.576 L463.645 72.576 L463.645 27.2059 M463.645 9.54393 L471.098 9.54393 L471.098 18.9825 L463.645 18.9825 L463.645 9.54393 Z" fill="#000000" fill-rule="nonzero" fill-opacity="1"></path><path clip-path="url(#clip080)" d="M515.618 28.5427 L515.618 35.5912 Q512.458 33.9709 509.055 33.1607 Q505.653 32.3505 502.007 32.3505 Q496.457 32.3505 493.662 34.0519 Q490.907 35.7533 490.907 39.156 Q490.907 41.7486 492.892 43.2475 Q494.877 44.7058 500.873 46.0426 L503.425 46.6097 Q511.364 48.3111 514.686 51.4303 Q518.048 54.509 518.048 60.0587 Q518.048 66.3781 513.025 70.0644 Q508.043 73.7508 499.293 73.7508 Q495.647 73.7508 491.677 73.0216 Q487.748 72.3329 483.373 70.9151 L483.373 63.2184 Q487.505 65.3654 491.515 66.4591 Q495.525 67.5124 499.455 67.5124 Q504.721 67.5124 507.557 65.73 Q510.392 63.9071 510.392 60.6258 Q510.392 57.5877 508.326 55.9673 Q506.301 54.3469 499.374 52.8481 L496.781 52.2405 Q489.854 50.7821 486.775 47.7845 Q483.697 44.7463 483.697 39.4801 Q483.697 33.0797 488.234 29.5959 Q492.771 26.1121 501.116 26.1121 Q505.248 26.1121 508.893 26.7198 Q512.539 27.3274 515.618 28.5427 Z" fill="#000000" fill-rule="nonzero" fill-opacity="1"></path><path clip-path="url(#clip080)" d="M567.631 45.1919 L567.631 72.576 L560.178 72.576 L560.178 45.4349 Q560.178 38.994 557.666 35.7938 Q555.155 32.5936 550.132 32.5936 Q544.096 32.5936 540.612 36.4419 Q537.128 40.2903 537.128 46.9338 L537.128 72.576 L529.634 72.576 L529.634 27.2059 L537.128 27.2059 L537.128 34.2544 Q539.802 30.163 543.407 28.1376 Q547.053 26.1121 551.792 26.1121 Q559.611 26.1121 563.621 30.9732 Q567.631 35.7938 567.631 45.1919 Z" fill="#000000" fill-rule="nonzero" fill-opacity="1"></path><path clip-path="url(#clip080)" d="M600.079 32.4315 Q594.084 32.4315 590.6 37.1306 Q587.116 41.7891 587.116 49.9314 Q587.116 58.0738 590.56 62.7728 Q594.043 67.4314 600.079 67.4314 Q606.034 67.4314 609.518 62.7323 Q613.002 58.0333 613.002 49.9314 Q613.002 41.8701 609.518 37.1711 Q606.034 32.4315 600.079 32.4315 M600.079 26.1121 Q609.801 26.1121 615.351 32.4315 Q620.901 38.7509 620.901 49.9314 Q620.901 61.0714 615.351 67.4314 Q609.801 73.7508 600.079 73.7508 Q590.317 73.7508 584.767 67.4314 Q579.258 61.0714 579.258 49.9314 Q579.258 38.7509 584.767 32.4315 Q590.317 26.1121 600.079 26.1121 Z" fill="#000000" fill-rule="nonzero" fill-opacity="1"></path><path clip-path="url(#clip080)" d="M662.18 28.5427 L662.18 35.5912 Q659.02 33.9709 655.617 33.1607 Q652.214 32.3505 648.569 32.3505 Q643.019 32.3505 640.224 34.0519 Q637.469 35.7533 637.469 39.156 Q637.469 41.7486 639.454 43.2475 Q641.439 44.7058 647.434 46.0426 L649.986 46.6097 Q657.926 48.3111 661.248 51.4303 Q664.61 54.509 664.61 60.0587 Q664.61 66.3781 659.587 70.0644 Q654.604 73.7508 645.854 73.7508 Q642.209 73.7508 638.239 73.0216 Q634.309 72.3329 629.934 70.9151 L629.934 63.2184 Q634.066 65.3654 638.077 66.4591 Q642.087 67.5124 646.016 67.5124 Q651.283 67.5124 654.118 65.73 Q656.954 63.9071 656.954 60.6258 Q656.954 57.5877 654.888 55.9673 Q652.863 54.3469 645.935 52.8481 L643.343 52.2405 Q636.416 50.7821 633.337 47.7845 Q630.258 44.7463 630.258 39.4801 Q630.258 33.0797 634.795 29.5959 Q639.332 26.1121 647.677 26.1121 Q651.809 26.1121 655.455 26.7198 Q659.101 27.3274 662.18 28.5427 Z" fill="#000000" fill-rule="nonzero" fill-opacity="1"></path><path clip-path="url(#clip080)" d="M683.852 14.324 L683.852 27.2059 L699.205 27.2059 L699.205 32.9987 L683.852 32.9987 L683.852 57.6282 Q683.852 63.1779 685.351 64.7578 Q686.89 66.3376 691.549 66.3376 L699.205 66.3376 L699.205 72.576 L691.549 72.576 Q682.92 72.576 679.639 69.3758 Q676.358 66.1351 676.358 57.6282 L676.358 32.9987 L670.889 32.9987 L670.889 27.2059 L676.358 27.2059 L676.358 14.324 L683.852 14.324 Z" fill="#000000" fill-rule="nonzero" fill-opacity="1"></path><path clip-path="url(#clip080)" d="M735.096 9.54393 L742.59 9.54393 L742.59 46.7717 L764.83 27.2059 L774.349 27.2059 L750.287 48.4326 L775.362 72.576 L765.64 72.576 L742.59 50.4176 L742.59 72.576 L735.096 72.576 L735.096 9.54393 Z" fill="#000000" fill-rule="nonzero" fill-opacity="1"></path><path clip-path="url(#clip080)" d="M798.047 32.4315 Q792.052 32.4315 788.568 37.1306 Q785.084 41.7891 785.084 49.9314 Q785.084 58.0738 788.527 62.7728 Q792.011 67.4314 798.047 67.4314 Q804.002 67.4314 807.486 62.7323 Q810.969 58.0333 810.969 49.9314 Q810.969 41.8701 807.486 37.1711 Q804.002 32.4315 798.047 32.4315 M798.047 26.1121 Q807.769 26.1121 813.319 32.4315 Q818.869 38.7509 818.869 49.9314 Q818.869 61.0714 813.319 67.4314 Q807.769 73.7508 798.047 73.7508 Q788.284 73.7508 782.735 67.4314 Q777.225 61.0714 777.225 49.9314 Q777.225 38.7509 782.735 32.4315 Q788.284 26.1121 798.047 26.1121 Z" fill="#000000" fill-rule="nonzero" fill-opacity="1"></path><path clip-path="url(#clip080)" d="M868.938 45.1919 L868.938 72.576 L861.484 72.576 L861.484 45.4349 Q861.484 38.994 858.973 35.7938 Q856.461 32.5936 851.438 32.5936 Q845.402 32.5936 841.918 36.4419 Q838.434 40.2903 838.434 46.9338 L838.434 72.576 L830.94 72.576 L830.94 27.2059 L838.434 27.2059 L838.434 34.2544 Q841.108 30.163 844.713 28.1376 Q848.359 26.1121 853.099 26.1121 Q860.917 26.1121 864.927 30.9732 Q868.938 35.7938 868.938 45.1919 Z" fill="#000000" fill-rule="nonzero" fill-opacity="1"></path><path clip-path="url(#clip080)" d="M878.457 27.2059 L886.357 27.2059 L900.535 65.2844 L914.713 27.2059 L922.612 27.2059 L905.598 72.576 L895.471 72.576 L878.457 27.2059 Z" fill="#000000" fill-rule="nonzero" fill-opacity="1"></path><path clip-path="url(#clip080)" d="M971.709 48.0275 L971.709 51.6733 L937.439 51.6733 Q937.925 59.3701 942.057 63.421 Q946.229 67.4314 953.642 67.4314 Q957.936 67.4314 961.947 66.3781 Q965.997 65.3249 969.967 63.2184 L969.967 70.267 Q965.957 71.9684 961.744 72.8596 Q957.531 73.7508 953.197 73.7508 Q942.34 73.7508 935.98 67.4314 Q929.661 61.1119 929.661 50.3365 Q929.661 39.1965 935.656 32.6746 Q941.692 26.1121 951.9 26.1121 Q961.055 26.1121 966.362 32.0264 Q971.709 37.9003 971.709 48.0275 M964.256 45.84 Q964.175 39.7232 960.812 36.0774 Q957.491 32.4315 951.981 32.4315 Q945.743 32.4315 941.976 35.9558 Q938.249 39.4801 937.682 45.8805 L964.256 45.84 Z" fill="#000000" fill-rule="nonzero" fill-opacity="1"></path><path clip-path="url(#clip080)" d="M1010.23 34.1734 Q1008.98 33.4443 1007.48 33.1202 Q1006.02 32.7556 1004.24 32.7556 Q997.919 32.7556 994.516 36.8875 Q991.154 40.9789 991.154 48.6757 L991.154 72.576 L983.659 72.576 L983.659 27.2059 L991.154 27.2059 L991.154 34.2544 Q993.503 30.1225 997.27 28.1376 Q1001.04 26.1121 1006.43 26.1121 Q1007.2 26.1121 1008.13 26.2337 Q1009.06 26.3147 1010.19 26.5172 L1010.23 34.1734 Z" fill="#000000" fill-rule="nonzero" fill-opacity="1"></path><path clip-path="url(#clip080)" d="M1046.45 49.3643 Q1046.45 41.2625 1043.09 36.8065 Q1039.76 32.3505 1033.73 32.3505 Q1027.73 32.3505 1024.37 36.8065 Q1021.05 41.2625 1021.05 49.3643 Q1021.05 57.4256 1024.37 61.8816 Q1027.73 66.3376 1033.73 66.3376 Q1039.76 66.3376 1043.09 61.8816 Q1046.45 57.4256 1046.45 49.3643 M1053.9 66.9452 Q1053.9 78.5308 1048.76 84.1616 Q1043.61 89.8329 1033 89.8329 Q1029.07 89.8329 1025.59 89.2252 Q1022.1 88.6581 1018.82 87.4428 L1018.82 80.1917 Q1022.1 81.9741 1025.3 82.8248 Q1028.5 83.6755 1031.82 83.6755 Q1039.16 83.6755 1042.8 79.8271 Q1046.45 76.0193 1046.45 68.282 L1046.45 64.5957 Q1044.14 68.6061 1040.53 70.5911 Q1036.93 72.576 1031.91 72.576 Q1023.56 72.576 1018.46 66.2161 Q1013.35 59.8562 1013.35 49.3643 Q1013.35 38.832 1018.46 32.472 Q1023.56 26.1121 1031.91 26.1121 Q1036.93 26.1121 1040.53 28.0971 Q1044.14 30.082 1046.45 34.0924 L1046.45 27.2059 L1053.9 27.2059 L1053.9 66.9452 Z" fill="#000000" fill-rule="nonzero" fill-opacity="1"></path><path clip-path="url(#clip080)" d="M1108.06 48.0275 L1108.06 51.6733 L1073.79 51.6733 Q1074.28 59.3701 1078.41 63.421 Q1082.58 67.4314 1090 67.4314 Q1094.29 67.4314 1098.3 66.3781 Q1102.35 65.3249 1106.32 63.2184 L1106.32 70.267 Q1102.31 71.9684 1098.1 72.8596 Q1093.88 73.7508 1089.55 73.7508 Q1078.69 73.7508 1072.33 67.4314 Q1066.01 61.1119 1066.01 50.3365 Q1066.01 39.1965 1072.01 32.6746 Q1078.05 26.1121 1088.25 26.1121 Q1097.41 26.1121 1102.72 32.0264 Q1108.06 37.9003 1108.06 48.0275 M1100.61 45.84 Q1100.53 39.7232 1097.17 36.0774 Q1093.84 32.4315 1088.33 32.4315 Q1082.1 32.4315 1078.33 35.9558 Q1074.6 39.4801 1074.04 45.8805 L1100.61 45.84 Z" fill="#000000" fill-rule="nonzero" fill-opacity="1"></path><path clip-path="url(#clip080)" d="M1158.01 45.1919 L1158.01 72.576 L1150.56 72.576 L1150.56 45.4349 Q1150.56 38.994 1148.05 35.7938 Q1145.53 32.5936 1140.51 32.5936 Q1134.47 32.5936 1130.99 36.4419 Q1127.51 40.2903 1127.51 46.9338 L1127.51 72.576 L1120.01 72.576 L1120.01 27.2059 L1127.51 27.2059 L1127.51 34.2544 Q1130.18 30.163 1133.79 28.1376 Q1137.43 26.1121 1142.17 26.1121 Q1149.99 26.1121 1154 30.9732 Q1158.01 35.7938 1158.01 45.1919 Z" fill="#000000" fill-rule="nonzero" fill-opacity="1"></path><path clip-path="url(#clip080)" d="M1205.53 28.9478 L1205.53 35.9153 Q1202.37 34.1734 1199.17 33.3227 Q1196.01 32.4315 1192.77 32.4315 Q1185.52 32.4315 1181.51 37.0496 Q1177.5 41.6271 1177.5 49.9314 Q1177.5 58.2358 1181.51 62.8538 Q1185.52 67.4314 1192.77 67.4314 Q1196.01 67.4314 1199.17 66.5807 Q1202.37 65.6895 1205.53 63.9476 L1205.53 70.8341 Q1202.41 72.2924 1199.05 73.0216 Q1195.72 73.7508 1191.96 73.7508 Q1181.71 73.7508 1175.67 67.3098 Q1169.64 60.8689 1169.64 49.9314 Q1169.64 38.832 1175.71 32.472 Q1181.83 26.1121 1192.44 26.1121 Q1195.89 26.1121 1199.17 26.8413 Q1202.45 27.5299 1205.53 28.9478 Z" fill="#000000" fill-rule="nonzero" fill-opacity="1"></path><path clip-path="url(#clip080)" d="M1257.3 48.0275 L1257.3 51.6733 L1223.03 51.6733 Q1223.51 59.3701 1227.65 63.421 Q1231.82 67.4314 1239.23 67.4314 Q1243.52 67.4314 1247.54 66.3781 Q1251.59 65.3249 1255.56 63.2184 L1255.56 70.267 Q1251.55 71.9684 1247.33 72.8596 Q1243.12 73.7508 1238.79 73.7508 Q1227.93 73.7508 1221.57 67.4314 Q1215.25 61.1119 1215.25 50.3365 Q1215.25 39.1965 1221.24 32.6746 Q1227.28 26.1121 1237.49 26.1121 Q1246.64 26.1121 1251.95 32.0264 Q1257.3 37.9003 1257.3 48.0275 M1249.84 45.84 Q1249.76 39.7232 1246.4 36.0774 Q1243.08 32.4315 1237.57 32.4315 Q1231.33 32.4315 1227.56 35.9558 Q1223.84 39.4801 1223.27 45.8805 L1249.84 45.84 Z" fill="#000000" fill-rule="nonzero" fill-opacity="1"></path><path clip-path="url(#clip080)" d="M1333.62 45.1919 L1333.62 72.576 L1326.16 72.576 L1326.16 45.4349 Q1326.16 38.994 1323.65 35.7938 Q1321.14 32.5936 1316.12 32.5936 Q1310.08 32.5936 1306.6 36.4419 Q1303.11 40.2903 1303.11 46.9338 L1303.11 72.576 L1295.62 72.576 L1295.62 9.54393 L1303.11 9.54393 L1303.11 34.2544 Q1305.79 30.163 1309.39 28.1376 Q1313.04 26.1121 1317.78 26.1121 Q1325.6 26.1121 1329.61 30.9732 Q1333.62 35.7938 1333.62 45.1919 Z" fill="#000000" fill-rule="nonzero" fill-opacity="1"></path><path clip-path="url(#clip080)" d="M1348.48 27.2059 L1355.94 27.2059 L1355.94 72.576 L1348.48 72.576 L1348.48 27.2059 M1348.48 9.54393 L1355.94 9.54393 L1355.94 18.9825 L1348.48 18.9825 L1348.48 9.54393 Z" fill="#000000" fill-rule="nonzero" fill-opacity="1"></path><path clip-path="url(#clip080)" d="M1378.91 14.324 L1378.91 27.2059 L1394.26 27.2059 L1394.26 32.9987 L1378.91 32.9987 L1378.91 57.6282 Q1378.91 63.1779 1380.4 64.7578 Q1381.94 66.3376 1386.6 66.3376 L1394.26 66.3376 L1394.26 72.576 L1386.6 72.576 Q1377.97 72.576 1374.69 69.3758 Q1371.41 66.1351 1371.41 57.6282 L1371.41 32.9987 L1365.94 32.9987 L1365.94 27.2059 L1371.41 27.2059 L1371.41 14.324 L1378.91 14.324 Z" fill="#000000" fill-rule="nonzero" fill-opacity="1"></path><path clip-path="url(#clip080)" d="M1430.35 34.1734 Q1429.1 33.4443 1427.6 33.1202 Q1426.14 32.7556 1424.36 32.7556 Q1418.04 32.7556 1414.64 36.8875 Q1411.27 40.9789 1411.27 48.6757 L1411.27 72.576 L1403.78 72.576 L1403.78 27.2059 L1411.27 27.2059 L1411.27 34.2544 Q1413.62 30.1225 1417.39 28.1376 Q1421.16 26.1121 1426.54 26.1121 Q1427.31 26.1121 1428.25 26.2337 Q1429.18 26.3147 1430.31 26.5172 L1430.35 34.1734 Z" fill="#000000" fill-rule="nonzero" fill-opacity="1"></path><path clip-path="url(#clip080)" d="M1453.93 32.4315 Q1447.93 32.4315 1444.45 37.1306 Q1440.97 41.7891 1440.97 49.9314 Q1440.97 58.0738 1444.41 62.7728 Q1447.89 67.4314 1453.93 67.4314 Q1459.88 67.4314 1463.37 62.7323 Q1466.85 58.0333 1466.85 49.9314 Q1466.85 41.8701 1463.37 37.1711 Q1459.88 32.4315 1453.93 32.4315 M1453.93 26.1121 Q1463.65 26.1121 1469.2 32.4315 Q1474.75 38.7509 1474.75 49.9314 Q1474.75 61.0714 1469.2 67.4314 Q1463.65 73.7508 1453.93 73.7508 Q1444.17 73.7508 1438.62 67.4314 Q1433.11 61.0714 1433.11 49.9314 Q1433.11 38.7509 1438.62 32.4315 Q1444.17 26.1121 1453.93 26.1121 Z" fill="#000000" fill-rule="nonzero" fill-opacity="1"></path><path clip-path="url(#clip080)" d="M1516.03 28.5427 L1516.03 35.5912 Q1512.87 33.9709 1509.47 33.1607 Q1506.06 32.3505 1502.42 32.3505 Q1496.87 32.3505 1494.07 34.0519 Q1491.32 35.7533 1491.32 39.156 Q1491.32 41.7486 1493.3 43.2475 Q1495.29 44.7058 1501.28 46.0426 L1503.84 46.6097 Q1511.78 48.3111 1515.1 51.4303 Q1518.46 54.509 1518.46 60.0587 Q1518.46 66.3781 1513.44 70.0644 Q1508.45 73.7508 1499.7 73.7508 Q1496.06 73.7508 1492.09 73.0216 Q1488.16 72.3329 1483.78 70.9151 L1483.78 63.2184 Q1487.92 65.3654 1491.93 66.4591 Q1495.94 67.5124 1499.87 67.5124 Q1505.13 67.5124 1507.97 65.73 Q1510.8 63.9071 1510.8 60.6258 Q1510.8 57.5877 1508.74 55.9673 Q1506.71 54.3469 1499.79 52.8481 L1497.19 52.2405 Q1490.27 50.7821 1487.19 47.7845 Q1484.11 44.7463 1484.11 39.4801 Q1484.11 33.0797 1488.65 29.5959 Q1493.18 26.1121 1501.53 26.1121 Q1505.66 26.1121 1509.3 26.7198 Q1512.95 27.3274 1516.03 28.5427 Z" fill="#000000" fill-rule="nonzero" fill-opacity="1"></path><path clip-path="url(#clip080)" d="M1537.7 14.324 L1537.7 27.2059 L1553.05 27.2059 L1553.05 32.9987 L1537.7 32.9987 L1537.7 57.6282 Q1537.7 63.1779 1539.2 64.7578 Q1540.74 66.3376 1545.4 66.3376 L1553.05 66.3376 L1553.05 72.576 L1545.4 72.576 Q1536.77 72.576 1533.49 69.3758 Q1530.21 66.1351 1530.21 57.6282 L1530.21 32.9987 L1524.74 32.9987 L1524.74 27.2059 L1530.21 27.2059 L1530.21 14.324 L1537.7 14.324 Z" fill="#000000" fill-rule="nonzero" fill-opacity="1"></path><path clip-path="url(#clip080)" d="M1562.86 27.2059 L1570.31 27.2059 L1570.31 72.576 L1562.86 72.576 L1562.86 27.2059 M1562.86 9.54393 L1570.31 9.54393 L1570.31 18.9825 L1562.86 18.9825 L1562.86 9.54393 Z" fill="#000000" fill-rule="nonzero" fill-opacity="1"></path><path clip-path="url(#clip080)" d="M1642.13 49.3643 Q1642.13 41.2625 1638.77 36.8065 Q1635.45 32.3505 1629.41 32.3505 Q1623.42 32.3505 1620.06 36.8065 Q1616.73 41.2625 1616.73 49.3643 Q1616.73 57.4256 1620.06 61.8816 Q1623.42 66.3376 1629.41 66.3376 Q1635.45 66.3376 1638.77 61.8816 Q1642.13 57.4256 1642.13 49.3643 M1649.59 66.9452 Q1649.59 78.5308 1644.44 84.1616 Q1639.3 89.8329 1628.68 89.8329 Q1624.76 89.8329 1621.27 89.2252 Q1617.79 88.6581 1614.51 87.4428 L1614.51 80.1917 Q1617.79 81.9741 1620.99 82.8248 Q1624.19 83.6755 1627.51 83.6755 Q1634.84 83.6755 1638.49 79.8271 Q1642.13 76.0193 1642.13 68.282 L1642.13 64.5957 Q1639.82 68.6061 1636.22 70.5911 Q1632.61 72.576 1627.59 72.576 Q1619.25 72.576 1614.14 66.2161 Q1609.04 59.8562 1609.04 49.3643 Q1609.04 38.832 1614.14 32.472 Q1619.25 26.1121 1627.59 26.1121 Q1632.61 26.1121 1636.22 28.0971 Q1639.82 30.082 1642.13 34.0924 L1642.13 27.2059 L1649.59 27.2059 L1649.59 66.9452 Z" fill="#000000" fill-rule="nonzero" fill-opacity="1"></path><path clip-path="url(#clip080)" d="M1664.94 9.54393 L1672.39 9.54393 L1672.39 72.576 L1664.94 72.576 L1664.94 9.54393 Z" fill="#000000" fill-rule="nonzero" fill-opacity="1"></path><path clip-path="url(#clip080)" d="M1726.8 48.0275 L1726.8 51.6733 L1692.53 51.6733 Q1693.01 59.3701 1697.15 63.421 Q1701.32 67.4314 1708.73 67.4314 Q1713.02 67.4314 1717.04 66.3781 Q1721.09 65.3249 1725.06 63.2184 L1725.06 70.267 Q1721.05 71.9684 1716.83 72.8596 Q1712.62 73.7508 1708.29 73.7508 Q1697.43 73.7508 1691.07 67.4314 Q1684.75 61.1119 1684.75 50.3365 Q1684.75 39.1965 1690.74 32.6746 Q1696.78 26.1121 1706.99 26.1121 Q1716.14 26.1121 1721.45 32.0264 Q1726.8 37.9003 1726.8 48.0275 M1719.34 45.84 Q1719.26 39.7232 1715.9 36.0774 Q1712.58 32.4315 1707.07 32.4315 Q1700.83 32.4315 1697.06 35.9558 Q1693.34 39.4801 1692.77 45.8805 L1719.34 45.84 Z" fill="#000000" fill-rule="nonzero" fill-opacity="1"></path><path clip-path="url(#clip080)" d="M1768.89 34.0924 L1768.89 9.54393 L1776.34 9.54393 L1776.34 72.576 L1768.89 72.576 L1768.89 65.7705 Q1766.54 69.8214 1762.93 71.8063 Q1759.37 73.7508 1754.34 73.7508 Q1746.12 73.7508 1740.94 67.1883 Q1735.79 60.6258 1735.79 49.9314 Q1735.79 39.2371 1740.94 32.6746 Q1746.12 26.1121 1754.34 26.1121 Q1759.37 26.1121 1762.93 28.0971 Q1766.54 30.0415 1768.89 34.0924 M1743.49 49.9314 Q1743.49 58.1548 1746.85 62.8538 Q1750.25 67.5124 1756.17 67.5124 Q1762.08 67.5124 1765.48 62.8538 Q1768.89 58.1548 1768.89 49.9314 Q1768.89 41.7081 1765.48 37.0496 Q1762.08 32.3505 1756.17 32.3505 Q1750.25 32.3505 1746.85 37.0496 Q1743.49 41.7081 1743.49 49.9314 Z" fill="#000000" fill-rule="nonzero" fill-opacity="1"></path><path clip-path="url(#clip080)" d="M1830.5 48.0275 L1830.5 51.6733 L1796.23 51.6733 Q1796.72 59.3701 1800.85 63.421 Q1805.02 67.4314 1812.43 67.4314 Q1816.73 67.4314 1820.74 66.3781 Q1824.79 65.3249 1828.76 63.2184 L1828.76 70.267 Q1824.75 71.9684 1820.54 72.8596 Q1816.32 73.7508 1811.99 73.7508 Q1801.13 73.7508 1794.77 67.4314 Q1788.45 61.1119 1788.45 50.3365 Q1788.45 39.1965 1794.45 32.6746 Q1800.48 26.1121 1810.69 26.1121 Q1819.85 26.1121 1825.15 32.0264 Q1830.5 37.9003 1830.5 48.0275 M1823.05 45.84 Q1822.97 39.7232 1819.6 36.0774 Q1816.28 32.4315 1810.77 32.4315 Q1804.53 32.4315 1800.77 35.9558 Q1797.04 39.4801 1796.47 45.8805 L1823.05 45.84 Z" fill="#000000" fill-rule="nonzero" fill-opacity="1"></path><path clip-path="url(#clip080)" d="M1906.82 45.1919 L1906.82 72.576 L1899.37 72.576 L1899.37 45.4349 Q1899.37 38.994 1896.85 35.7938 Q1894.34 32.5936 1889.32 32.5936 Q1883.28 32.5936 1879.8 36.4419 Q1876.32 40.2903 1876.32 46.9338 L1876.32 72.576 L1868.82 72.576 L1868.82 27.2059 L1876.32 27.2059 L1876.32 34.2544 Q1878.99 30.163 1882.6 28.1376 Q1886.24 26.1121 1890.98 26.1121 Q1898.8 26.1121 1902.81 30.9732 Q1906.82 35.7938 1906.82 45.1919 Z" fill="#000000" fill-rule="nonzero" fill-opacity="1"></path><path clip-path="url(#clip080)" d="M1942.31 49.7694 Q1933.27 49.7694 1929.79 51.8354 Q1926.3 53.9013 1926.3 58.8839 Q1926.3 62.8538 1928.9 65.2034 Q1931.53 67.5124 1936.03 67.5124 Q1942.22 67.5124 1945.95 63.1374 Q1949.72 58.7219 1949.72 51.4303 L1949.72 49.7694 L1942.31 49.7694 M1957.17 46.6907 L1957.17 72.576 L1949.72 72.576 L1949.72 65.6895 Q1947.17 69.8214 1943.36 71.8063 Q1939.55 73.7508 1934.04 73.7508 Q1927.07 73.7508 1922.94 69.8619 Q1918.85 65.9325 1918.85 59.3701 Q1918.85 51.7138 1923.96 47.825 Q1929.1 43.9361 1939.27 43.9361 L1949.72 43.9361 L1949.72 43.2069 Q1949.72 38.0623 1946.32 35.2672 Q1942.95 32.4315 1936.84 32.4315 Q1932.95 32.4315 1929.26 33.3632 Q1925.58 34.295 1922.17 36.1584 L1922.17 29.2718 Q1926.26 27.692 1930.11 26.9223 Q1933.96 26.1121 1937.61 26.1121 Q1947.45 26.1121 1952.31 31.2163 Q1957.17 36.3204 1957.17 46.6907 Z" fill="#000000" fill-rule="nonzero" fill-opacity="1"></path><path clip-path="url(#clip080)" d="M2016.48 32.4315 Q2010.48 32.4315 2007 37.1306 Q2003.51 41.7891 2003.51 49.9314 Q2003.51 58.0738 2006.96 62.7728 Q2010.44 67.4314 2016.48 67.4314 Q2022.43 67.4314 2025.92 62.7323 Q2029.4 58.0333 2029.4 49.9314 Q2029.4 41.8701 2025.92 37.1711 Q2022.43 32.4315 2016.48 32.4315 M2016.48 26.1121 Q2026.2 26.1121 2031.75 32.4315 Q2037.3 38.7509 2037.3 49.9314 Q2037.3 61.0714 2031.75 67.4314 Q2026.2 73.7508 2016.48 73.7508 Q2006.72 73.7508 2001.17 67.4314 Q1995.66 61.0714 1995.66 49.9314 Q1995.66 38.7509 2001.17 32.4315 Q2006.72 26.1121 2016.48 26.1121 Z" fill="#000000" fill-rule="nonzero" fill-opacity="1"></path><path clip-path="url(#clip080)" d="M2084.98 35.9153 Q2087.77 30.8922 2091.66 28.5022 Q2095.55 26.1121 2100.82 26.1121 Q2107.91 26.1121 2111.76 31.0947 Q2115.6 36.0368 2115.6 45.1919 L2115.6 72.576 L2108.11 72.576 L2108.11 45.4349 Q2108.11 38.913 2105.8 35.7533 Q2103.49 32.5936 2098.75 32.5936 Q2092.96 32.5936 2089.6 36.4419 Q2086.23 40.2903 2086.23 46.9338 L2086.23 72.576 L2078.74 72.576 L2078.74 45.4349 Q2078.74 38.8725 2076.43 35.7533 Q2074.12 32.5936 2069.3 32.5936 Q2063.59 32.5936 2060.23 36.4824 Q2056.87 40.3308 2056.87 46.9338 L2056.87 72.576 L2049.37 72.576 L2049.37 27.2059 L2056.87 27.2059 L2056.87 34.2544 Q2059.42 30.082 2062.98 28.0971 Q2066.55 26.1121 2071.45 26.1121 Q2076.39 26.1121 2079.83 28.6237 Q2083.32 31.1352 2084.98 35.9153 Z" fill="#000000" fill-rule="nonzero" fill-opacity="1"></path><path clip-path="url(#clip080)" d="M2169.28 48.0275 L2169.28 51.6733 L2135.01 51.6733 Q2135.49 59.3701 2139.63 63.421 Q2143.8 67.4314 2151.21 67.4314 Q2155.5 67.4314 2159.52 66.3781 Q2163.57 65.3249 2167.54 63.2184 L2167.54 70.267 Q2163.53 71.9684 2159.31 72.8596 Q2155.1 73.7508 2150.77 73.7508 Q2139.91 73.7508 2133.55 67.4314 Q2127.23 61.1119 2127.23 50.3365 Q2127.23 39.1965 2133.22 32.6746 Q2139.26 26.1121 2149.47 26.1121 Q2158.62 26.1121 2163.93 32.0264 Q2169.28 37.9003 2169.28 48.0275 M2161.82 45.84 Q2161.74 39.7232 2158.38 36.0774 Q2155.06 32.4315 2149.55 32.4315 Q2143.31 32.4315 2139.54 35.9558 Q2135.82 39.4801 2135.25 45.8805 L2161.82 45.84 Z" fill="#000000" fill-rule="nonzero" fill-opacity="1"></path><path clip-path="url(#clip080)" d="M2211.37 49.3643 Q2211.37 41.2625 2208 36.8065 Q2204.68 32.3505 2198.65 32.3505 Q2192.65 32.3505 2189.29 36.8065 Q2185.97 41.2625 2185.97 49.3643 Q2185.97 57.4256 2189.29 61.8816 Q2192.65 66.3376 2198.65 66.3376 Q2204.68 66.3376 2208 61.8816 Q2211.37 57.4256 2211.37 49.3643 M2218.82 66.9452 Q2218.82 78.5308 2213.68 84.1616 Q2208.53 89.8329 2197.92 89.8329 Q2193.99 89.8329 2190.5 89.2252 Q2187.02 88.6581 2183.74 87.4428 L2183.74 80.1917 Q2187.02 81.9741 2190.22 82.8248 Q2193.42 83.6755 2196.74 83.6755 Q2204.08 83.6755 2207.72 79.8271 Q2211.37 76.0193 2211.37 68.282 L2211.37 64.5957 Q2209.06 68.6061 2205.45 70.5911 Q2201.85 72.576 2196.82 72.576 Q2188.48 72.576 2183.38 66.2161 Q2178.27 59.8562 2178.27 49.3643 Q2178.27 38.832 2183.38 32.472 Q2188.48 26.1121 2196.82 26.1121 Q2201.85 26.1121 2205.45 28.0971 Q2209.06 30.082 2211.37 34.0924 L2211.37 27.2059 L2218.82 27.2059 L2218.82 66.9452 Z" fill="#000000" fill-rule="nonzero" fill-opacity="1"></path><path clip-path="url(#clip080)" d="M2254.79 49.7694 Q2245.76 49.7694 2242.28 51.8354 Q2238.79 53.9013 2238.79 58.8839 Q2238.79 62.8538 2241.38 65.2034 Q2244.02 67.5124 2248.51 67.5124 Q2254.71 67.5124 2258.44 63.1374 Q2262.21 58.7219 2262.21 51.4303 L2262.21 49.7694 L2254.79 49.7694 M2269.66 46.6907 L2269.66 72.576 L2262.21 72.576 L2262.21 65.6895 Q2259.65 69.8214 2255.85 71.8063 Q2252.04 73.7508 2246.53 73.7508 Q2239.56 73.7508 2235.43 69.8619 Q2231.34 65.9325 2231.34 59.3701 Q2231.34 51.7138 2236.44 47.825 Q2241.59 43.9361 2251.75 43.9361 L2262.21 43.9361 L2262.21 43.2069 Q2262.21 38.0623 2258.8 35.2672 Q2255.44 32.4315 2249.32 32.4315 Q2245.43 32.4315 2241.75 33.3632 Q2238.06 34.295 2234.66 36.1584 L2234.66 29.2718 Q2238.75 27.692 2242.6 26.9223 Q2246.45 26.1121 2250.09 26.1121 Q2259.94 26.1121 2264.8 31.2163 Q2269.66 36.3204 2269.66 46.6907 Z" fill="#000000" fill-rule="nonzero" fill-opacity="1"></path><path clip-path="url(#clip080)" d="M2286.07 62.2867 L2294.61 62.2867 L2294.61 72.576 L2286.07 72.576 L2286.07 62.2867 Z" fill="#000000" fill-rule="nonzero" fill-opacity="1"></path><polyline clip-path="url(#clip082)" style="stroke:#009af9; stroke-linecap:round; stroke-linejoin:round; stroke-width:4; stroke-opacity:1; fill:none" points="295.211,1258.52 961.083,1373.86 1094.26,1386.4 1626.96,1321.2 1893.3,1218.4 2292.83,160.256 "></polyline>
<path clip-path="url(#clip080)" d="M305.865 270.476 L570.043 270.476 L570.043 166.796 L305.865 166.796  Z" fill="#ffffff" fill-rule="evenodd" fill-opacity="1"></path>
<polyline clip-path="url(#clip080)" style="stroke:#000000; stroke-linecap:round; stroke-linejoin:round; stroke-width:4; stroke-opacity:1; fill:none" points="305.865,270.476 570.043,270.476 570.043,166.796 305.865,166.796 305.865,270.476 "></polyline>
<polyline clip-path="url(#clip080)" style="stroke:#009af9; stroke-linecap:round; stroke-linejoin:round; stroke-width:4; stroke-opacity:1; fill:none" points="329.393,218.636 470.558,218.636 "></polyline>
<path clip-path="url(#clip080)" d="M507.928 238.323 Q506.122 242.953 504.409 244.365 Q502.696 245.777 499.826 245.777 L496.423 245.777 L496.423 242.212 L498.923 242.212 Q500.682 242.212 501.655 241.379 Q502.627 240.545 503.807 237.443 L504.571 235.499 L494.085 209.99 L498.599 209.99 L506.701 230.268 L514.803 209.99 L519.316 209.99 L507.928 238.323 Z" fill="#000000" fill-rule="nonzero" fill-opacity="1"></path><path clip-path="url(#clip080)" d="M526.608 231.981 L534.247 231.981 L534.247 205.615 L525.937 207.282 L525.937 203.022 L534.201 201.356 L538.877 201.356 L538.877 231.981 L546.515 231.981 L546.515 235.916 L526.608 235.916 L526.608 231.981 Z" fill="#000000" fill-rule="nonzero" fill-opacity="1"></path></svg>