<svg xmlns="http://www.w3.org/2000/svg" xmlns:xlink="http://www.w3.org/1999/xlink" width="600" height="400" viewBox="0 0 2400 1600">
<defs>
  <clipPath id="clip660">
    <rect x="0" y="0" width="2400" height="1600"></rect>
  </clipPath>
</defs>
<path clip-path="url(#clip660)" d="M0 1600 L2400 1600 L2400 0 L0 0  Z" fill="#ffffff" fill-rule="evenodd" fill-opacity="1"></path>
<defs>
  <clipPath id="clip661">
    <rect x="480" y="0" width="1681" height="1600"></rect>
  </clipPath>
</defs>
<path clip-path="url(#clip660)" d="M257.204 1423.18 L2352.76 1423.18 L2352.76 123.472 L257.204 123.472  Z" fill="#ffffff" fill-rule="evenodd" fill-opacity="1"></path>
<defs>
  <clipPath id="clip662">
    <rect x="257" y="123" width="2097" height="1301"></rect>
  </clipPath>
</defs>
<polyline clip-path="url(#clip662)" style="stroke:#000000; stroke-linecap:round; stroke-linejoin:round; stroke-width:2; stroke-opacity:0.1; fill:none" points="540.584,1423.18 540.584,123.472 "></polyline>
<polyline clip-path="url(#clip662)" style="stroke:#000000; stroke-linecap:round; stroke-linejoin:round; stroke-width:2; stroke-opacity:0.1; fill:none" points="927.673,1423.18 927.673,123.472 "></polyline>
<polyline clip-path="url(#clip662)" style="stroke:#000000; stroke-linecap:round; stroke-linejoin:round; stroke-width:2; stroke-opacity:0.1; fill:none" points="1314.76,1423.18 1314.76,123.472 "></polyline>
<polyline clip-path="url(#clip662)" style="stroke:#000000; stroke-linecap:round; stroke-linejoin:round; stroke-width:2; stroke-opacity:0.1; fill:none" points="1701.85,1423.18 1701.85,123.472 "></polyline>
<polyline clip-path="url(#clip662)" style="stroke:#000000; stroke-linecap:round; stroke-linejoin:round; stroke-width:2; stroke-opacity:0.1; fill:none" points="2088.94,1423.18 2088.94,123.472 "></polyline>
<polyline clip-path="url(#clip660)" style="stroke:#000000; stroke-linecap:round; stroke-linejoin:round; stroke-width:4; stroke-opacity:1; fill:none" points="257.204,1423.18 2352.76,1423.18 "></polyline>
<polyline clip-path="url(#clip660)" style="stroke:#000000; stroke-linecap:round; stroke-linejoin:round; stroke-width:4; stroke-opacity:1; fill:none" points="540.584,1423.18 540.584,1404.28 "></polyline>
<polyline clip-path="url(#clip660)" style="stroke:#000000; stroke-linecap:round; stroke-linejoin:round; stroke-width:4; stroke-opacity:1; fill:none" points="927.673,1423.18 927.673,1404.28 "></polyline>
<polyline clip-path="url(#clip660)" style="stroke:#000000; stroke-linecap:round; stroke-linejoin:round; stroke-width:4; stroke-opacity:1; fill:none" points="1314.76,1423.18 1314.76,1404.28 "></polyline>
<polyline clip-path="url(#clip660)" style="stroke:#000000; stroke-linecap:round; stroke-linejoin:round; stroke-width:4; stroke-opacity:1; fill:none" points="1701.85,1423.18 1701.85,1404.28 "></polyline>
<polyline clip-path="url(#clip660)" style="stroke:#000000; stroke-linecap:round; stroke-linejoin:round; stroke-width:4; stroke-opacity:1; fill:none" points="2088.94,1423.18 2088.94,1404.28 "></polyline>
<path clip-path="url(#clip660)" d="M494.646 1468.75 L524.322 1468.75 L524.322 1472.69 L494.646 1472.69 L494.646 1468.75 Z" fill="#000000" fill-rule="nonzero" fill-opacity="1"></path><path clip-path="url(#clip660)" d="M544.993 1466.44 Q541.845 1466.44 539.993 1468.59 Q538.165 1470.74 538.165 1474.49 Q538.165 1478.22 539.993 1480.39 Q541.845 1482.55 544.993 1482.55 Q548.141 1482.55 549.97 1480.39 Q551.822 1478.22 551.822 1474.49 Q551.822 1470.74 549.97 1468.59 Q548.141 1466.44 544.993 1466.44 M554.276 1451.78 L554.276 1456.04 Q552.516 1455.21 550.711 1454.77 Q548.928 1454.33 547.169 1454.33 Q542.54 1454.33 540.086 1457.45 Q537.655 1460.58 537.308 1466.9 Q538.674 1464.89 540.734 1463.82 Q542.794 1462.73 545.271 1462.73 Q550.479 1462.73 553.489 1465.9 Q556.521 1469.05 556.521 1474.49 Q556.521 1479.82 553.373 1483.03 Q550.225 1486.25 544.993 1486.25 Q538.998 1486.25 535.827 1481.67 Q532.655 1477.06 532.655 1468.33 Q532.655 1460.14 536.544 1455.28 Q540.433 1450.39 546.984 1450.39 Q548.743 1450.39 550.526 1450.74 Q552.331 1451.09 554.276 1451.78 Z" fill="#000000" fill-rule="nonzero" fill-opacity="1"></path><path clip-path="url(#clip660)" d="M574.576 1454.1 Q570.965 1454.1 569.137 1457.66 Q567.331 1461.2 567.331 1468.33 Q567.331 1475.44 569.137 1479.01 Q570.965 1482.55 574.576 1482.55 Q578.211 1482.55 580.016 1479.01 Q581.845 1475.44 581.845 1468.33 Q581.845 1461.2 580.016 1457.66 Q578.211 1454.1 574.576 1454.1 M574.576 1450.39 Q580.387 1450.39 583.442 1455 Q586.521 1459.58 586.521 1468.33 Q586.521 1477.06 583.442 1481.67 Q580.387 1486.25 574.576 1486.25 Q568.766 1486.25 565.688 1481.67 Q562.632 1477.06 562.632 1468.33 Q562.632 1459.58 565.688 1455 Q568.766 1450.39 574.576 1450.39 Z" fill="#000000" fill-rule="nonzero" fill-opacity="1"></path><path clip-path="url(#clip660)" d="M881.736 1468.75 L911.412 1468.75 L911.412 1472.69 L881.736 1472.69 L881.736 1468.75 Z" fill="#000000" fill-rule="nonzero" fill-opacity="1"></path><path clip-path="url(#clip660)" d="M935.671 1466.95 Q939.027 1467.66 940.902 1469.93 Q942.8 1472.2 942.8 1475.53 Q942.8 1480.65 939.282 1483.45 Q935.763 1486.25 929.282 1486.25 Q927.106 1486.25 924.791 1485.81 Q922.5 1485.39 920.046 1484.54 L920.046 1480.02 Q921.99 1481.16 924.305 1481.74 Q926.62 1482.32 929.143 1482.32 Q933.541 1482.32 935.833 1480.58 Q938.148 1478.84 938.148 1475.53 Q938.148 1472.48 935.995 1470.77 Q933.865 1469.03 930.046 1469.03 L926.018 1469.03 L926.018 1465.19 L930.231 1465.19 Q933.68 1465.19 935.509 1463.82 Q937.338 1462.43 937.338 1459.84 Q937.338 1457.18 935.439 1455.77 Q933.564 1454.33 930.046 1454.33 Q928.125 1454.33 925.926 1454.75 Q923.726 1455.16 921.088 1456.04 L921.088 1451.88 Q923.75 1451.14 926.064 1450.77 Q928.402 1450.39 930.463 1450.39 Q935.787 1450.39 938.888 1452.83 Q941.99 1455.23 941.99 1459.35 Q941.99 1462.22 940.347 1464.21 Q938.703 1466.18 935.671 1466.95 Z" fill="#000000" fill-rule="nonzero" fill-opacity="1"></path><path clip-path="url(#clip660)" d="M961.666 1454.1 Q958.055 1454.1 956.226 1457.66 Q954.421 1461.2 954.421 1468.33 Q954.421 1475.44 956.226 1479.01 Q958.055 1482.55 961.666 1482.55 Q965.3 1482.55 967.106 1479.01 Q968.935 1475.44 968.935 1468.33 Q968.935 1461.2 967.106 1457.66 Q965.3 1454.1 961.666 1454.1 M961.666 1450.39 Q967.476 1450.39 970.532 1455 Q973.61 1459.58 973.61 1468.33 Q973.61 1477.06 970.532 1481.67 Q967.476 1486.25 961.666 1486.25 Q955.856 1486.25 952.777 1481.67 Q949.722 1477.06 949.722 1468.33 Q949.722 1459.58 952.777 1455 Q955.856 1450.39 961.666 1450.39 Z" fill="#000000" fill-rule="nonzero" fill-opacity="1"></path><path clip-path="url(#clip660)" d="M1314.76 1454.1 Q1311.15 1454.1 1309.32 1457.66 Q1307.52 1461.2 1307.52 1468.33 Q1307.52 1475.44 1309.32 1479.01 Q1311.15 1482.55 1314.76 1482.55 Q1318.4 1482.55 1320.2 1479.01 Q1322.03 1475.44 1322.03 1468.33 Q1322.03 1461.2 1320.2 1457.66 Q1318.4 1454.1 1314.76 1454.1 M1314.76 1450.39 Q1320.57 1450.39 1323.63 1455 Q1326.71 1459.58 1326.71 1468.33 Q1326.71 1477.06 1323.63 1481.67 Q1320.57 1486.25 1314.76 1486.25 Q1308.95 1486.25 1305.87 1481.67 Q1302.82 1477.06 1302.82 1468.33 Q1302.82 1459.58 1305.87 1455 Q1308.95 1450.39 1314.76 1450.39 Z" fill="#000000" fill-rule="nonzero" fill-opacity="1"></path><path clip-path="url(#clip660)" d="M1690.7 1466.95 Q1694.05 1467.66 1695.93 1469.93 Q1697.82 1472.2 1697.82 1475.53 Q1697.82 1480.65 1694.31 1483.45 Q1690.79 1486.25 1684.31 1486.25 Q1682.13 1486.25 1679.82 1485.81 Q1677.52 1485.39 1675.07 1484.54 L1675.07 1480.02 Q1677.01 1481.16 1679.33 1481.74 Q1681.64 1482.32 1684.17 1482.32 Q1688.57 1482.32 1690.86 1480.58 Q1693.17 1478.84 1693.17 1475.53 Q1693.17 1472.48 1691.02 1470.77 Q1688.89 1469.03 1685.07 1469.03 L1681.04 1469.03 L1681.04 1465.19 L1685.26 1465.19 Q1688.7 1465.19 1690.53 1463.82 Q1692.36 1462.43 1692.36 1459.84 Q1692.36 1457.18 1690.46 1455.77 Q1688.59 1454.33 1685.07 1454.33 Q1683.15 1454.33 1680.95 1454.75 Q1678.75 1455.16 1676.11 1456.04 L1676.11 1451.88 Q1678.77 1451.14 1681.09 1450.77 Q1683.43 1450.39 1685.49 1450.39 Q1690.81 1450.39 1693.91 1452.83 Q1697.01 1455.23 1697.01 1459.35 Q1697.01 1462.22 1695.37 1464.21 Q1693.73 1466.18 1690.7 1466.95 Z" fill="#000000" fill-rule="nonzero" fill-opacity="1"></path><path clip-path="url(#clip660)" d="M1716.69 1454.1 Q1713.08 1454.1 1711.25 1457.66 Q1709.45 1461.2 1709.45 1468.33 Q1709.45 1475.44 1711.25 1479.01 Q1713.08 1482.55 1716.69 1482.55 Q1720.32 1482.55 1722.13 1479.01 Q1723.96 1475.44 1723.96 1468.33 Q1723.96 1461.2 1722.13 1457.66 Q1720.32 1454.1 1716.69 1454.1 M1716.69 1450.39 Q1722.5 1450.39 1725.56 1455 Q1728.63 1459.58 1728.63 1468.33 Q1728.63 1477.06 1725.56 1481.67 Q1722.5 1486.25 1716.69 1486.25 Q1710.88 1486.25 1707.8 1481.67 Q1704.75 1477.06 1704.75 1468.33 Q1704.75 1459.58 1707.8 1455 Q1710.88 1450.39 1716.69 1450.39 Z" fill="#000000" fill-rule="nonzero" fill-opacity="1"></path><path clip-path="url(#clip660)" d="M2074.35 1466.44 Q2071.2 1466.44 2069.35 1468.59 Q2067.52 1470.74 2067.52 1474.49 Q2067.52 1478.22 2069.35 1480.39 Q2071.2 1482.55 2074.35 1482.55 Q2077.5 1482.55 2079.32 1480.39 Q2081.18 1478.22 2081.18 1474.49 Q2081.18 1470.74 2079.32 1468.59 Q2077.5 1466.44 2074.35 1466.44 M2083.63 1451.78 L2083.63 1456.04 Q2081.87 1455.21 2080.06 1454.77 Q2078.28 1454.33 2076.52 1454.33 Q2071.89 1454.33 2069.44 1457.45 Q2067.01 1460.58 2066.66 1466.9 Q2068.03 1464.89 2070.09 1463.82 Q2072.15 1462.73 2074.63 1462.73 Q2079.83 1462.73 2082.84 1465.9 Q2085.88 1469.05 2085.88 1474.49 Q2085.88 1479.82 2082.73 1483.03 Q2079.58 1486.25 2074.35 1486.25 Q2068.35 1486.25 2065.18 1481.67 Q2062.01 1477.06 2062.01 1468.33 Q2062.01 1460.14 2065.9 1455.28 Q2069.79 1450.39 2076.34 1450.39 Q2078.1 1450.39 2079.88 1450.74 Q2081.69 1451.09 2083.63 1451.78 Z" fill="#000000" fill-rule="nonzero" fill-opacity="1"></path><path clip-path="url(#clip660)" d="M2103.93 1454.1 Q2100.32 1454.1 2098.49 1457.66 Q2096.69 1461.2 2096.69 1468.33 Q2096.69 1475.44 2098.49 1479.01 Q2100.32 1482.55 2103.93 1482.55 Q2107.56 1482.55 2109.37 1479.01 Q2111.2 1475.44 2111.2 1468.33 Q2111.2 1461.2 2109.37 1457.66 Q2107.56 1454.1 2103.93 1454.1 M2103.93 1450.39 Q2109.74 1450.39 2112.8 1455 Q2115.87 1459.58 2115.87 1468.33 Q2115.87 1477.06 2112.8 1481.67 Q2109.74 1486.25 2103.93 1486.25 Q2098.12 1486.25 2095.04 1481.67 Q2091.99 1477.06 2091.99 1468.33 Q2091.99 1459.58 2095.04 1455 Q2098.12 1450.39 2103.93 1450.39 Z" fill="#000000" fill-rule="nonzero" fill-opacity="1"></path><path clip-path="url(#clip660)" d="M1286.81 1520.52 L1293.71 1520.52 L1305.52 1538.19 L1317.39 1520.52 L1324.3 1520.52 L1309.02 1543.34 L1325.32 1568.04 L1318.41 1568.04 L1305.04 1547.83 L1291.58 1568.04 L1284.64 1568.04 L1301.61 1542.68 L1286.81 1520.52 Z" fill="#000000" fill-rule="nonzero" fill-opacity="1"></path><polyline clip-path="url(#clip662)" style="stroke:#000000; stroke-linecap:round; stroke-linejoin:round; stroke-width:2; stroke-opacity:0.1; fill:none" points="257.204,1297.26 2352.76,1297.26 "></polyline>
<polyline clip-path="url(#clip662)" style="stroke:#000000; stroke-linecap:round; stroke-linejoin:round; stroke-width:2; stroke-opacity:0.1; fill:none" points="257.204,1044.62 2352.76,1044.62 "></polyline>
<polyline clip-path="url(#clip662)" style="stroke:#000000; stroke-linecap:round; stroke-linejoin:round; stroke-width:2; stroke-opacity:0.1; fill:none" points="257.204,791.986 2352.76,791.986 "></polyline>
<polyline clip-path="url(#clip662)" style="stroke:#000000; stroke-linecap:round; stroke-linejoin:round; stroke-width:2; stroke-opacity:0.1; fill:none" points="257.204,539.351 2352.76,539.351 "></polyline>
<polyline clip-path="url(#clip662)" style="stroke:#000000; stroke-linecap:round; stroke-linejoin:round; stroke-width:2; stroke-opacity:0.1; fill:none" points="257.204,286.716 2352.76,286.716 "></polyline>
<polyline clip-path="url(#clip660)" style="stroke:#000000; stroke-linecap:round; stroke-linejoin:round; stroke-width:4; stroke-opacity:1; fill:none" points="257.204,1423.18 257.204,123.472 "></polyline>
<polyline clip-path="url(#clip660)" style="stroke:#000000; stroke-linecap:round; stroke-linejoin:round; stroke-width:4; stroke-opacity:1; fill:none" points="257.204,1297.26 276.102,1297.26 "></polyline>
<polyline clip-path="url(#clip660)" style="stroke:#000000; stroke-linecap:round; stroke-linejoin:round; stroke-width:4; stroke-opacity:1; fill:none" points="257.204,1044.62 276.102,1044.62 "></polyline>
<polyline clip-path="url(#clip660)" style="stroke:#000000; stroke-linecap:round; stroke-linejoin:round; stroke-width:4; stroke-opacity:1; fill:none" points="257.204,791.986 276.102,791.986 "></polyline>
<polyline clip-path="url(#clip660)" style="stroke:#000000; stroke-linecap:round; stroke-linejoin:round; stroke-width:4; stroke-opacity:1; fill:none" points="257.204,539.351 276.102,539.351 "></polyline>
<polyline clip-path="url(#clip660)" style="stroke:#000000; stroke-linecap:round; stroke-linejoin:round; stroke-width:4; stroke-opacity:1; fill:none" points="257.204,286.716 276.102,286.716 "></polyline>
<path clip-path="url(#clip660)" d="M114.26 1297.71 L143.936 1297.71 L143.936 1301.64 L114.26 1301.64 L114.26 1297.71 Z" fill="#000000" fill-rule="nonzero" fill-opacity="1"></path><path clip-path="url(#clip660)" d="M154.075 1279.98 L172.431 1279.98 L172.431 1283.91 L158.357 1283.91 L158.357 1292.38 Q159.376 1292.04 160.394 1291.87 Q161.413 1291.69 162.431 1291.69 Q168.218 1291.69 171.598 1294.86 Q174.977 1298.03 174.977 1303.45 Q174.977 1309.03 171.505 1312.13 Q168.033 1315.21 161.714 1315.21 Q159.538 1315.21 157.269 1314.84 Q155.024 1314.47 152.616 1313.73 L152.616 1309.03 Q154.7 1310.16 156.922 1310.72 Q159.144 1311.27 161.621 1311.27 Q165.626 1311.27 167.964 1309.17 Q170.302 1307.06 170.302 1303.45 Q170.302 1299.84 167.964 1297.73 Q165.626 1295.62 161.621 1295.62 Q159.746 1295.62 157.871 1296.04 Q156.019 1296.46 154.075 1297.34 L154.075 1279.98 Z" fill="#000000" fill-rule="nonzero" fill-opacity="1"></path><path clip-path="url(#clip660)" d="M184.19 1308.66 L189.075 1308.66 L189.075 1314.54 L184.19 1314.54 L184.19 1308.66 Z" fill="#000000" fill-rule="nonzero" fill-opacity="1"></path><path clip-path="url(#clip660)" d="M209.26 1283.05 Q205.649 1283.05 203.82 1286.62 Q202.014 1290.16 202.014 1297.29 Q202.014 1304.4 203.82 1307.96 Q205.649 1311.5 209.26 1311.5 Q212.894 1311.5 214.699 1307.96 Q216.528 1304.4 216.528 1297.29 Q216.528 1290.16 214.699 1286.62 Q212.894 1283.05 209.26 1283.05 M209.26 1279.35 Q215.07 1279.35 218.125 1283.96 Q221.204 1288.54 221.204 1297.29 Q221.204 1306.02 218.125 1310.62 Q215.07 1315.21 209.26 1315.21 Q203.449 1315.21 200.371 1310.62 Q197.315 1306.02 197.315 1297.29 Q197.315 1288.54 200.371 1283.96 Q203.449 1279.35 209.26 1279.35 Z" fill="#000000" fill-rule="nonzero" fill-opacity="1"></path><path clip-path="url(#clip660)" d="M115.256 1045.07 L144.931 1045.07 L144.931 1049.01 L115.256 1049.01 L115.256 1045.07 Z" fill="#000000" fill-rule="nonzero" fill-opacity="1"></path><path clip-path="url(#clip660)" d="M159.052 1057.97 L175.371 1057.97 L175.371 1061.9 L153.427 1061.9 L153.427 1057.97 Q156.089 1055.21 160.672 1050.58 Q165.278 1045.93 166.459 1044.59 Q168.704 1042.06 169.584 1040.33 Q170.487 1038.57 170.487 1036.88 Q170.487 1034.12 168.542 1032.39 Q166.621 1030.65 163.519 1030.65 Q161.32 1030.65 158.866 1031.41 Q156.436 1032.18 153.658 1033.73 L153.658 1029.01 Q156.482 1027.87 158.936 1027.29 Q161.39 1026.72 163.427 1026.72 Q168.797 1026.72 171.991 1029.4 Q175.186 1032.09 175.186 1036.58 Q175.186 1038.71 174.376 1040.63 Q173.589 1042.53 171.482 1045.12 Q170.903 1045.79 167.802 1049.01 Q164.7 1052.2 159.052 1057.97 Z" fill="#000000" fill-rule="nonzero" fill-opacity="1"></path><path clip-path="url(#clip660)" d="M185.186 1056.02 L190.07 1056.02 L190.07 1061.9 L185.186 1061.9 L185.186 1056.02 Z" fill="#000000" fill-rule="nonzero" fill-opacity="1"></path><path clip-path="url(#clip660)" d="M200.301 1027.34 L218.658 1027.34 L218.658 1031.28 L204.584 1031.28 L204.584 1039.75 Q205.602 1039.4 206.621 1039.24 Q207.639 1039.05 208.658 1039.05 Q214.445 1039.05 217.824 1042.22 Q221.204 1045.4 221.204 1050.81 Q221.204 1056.39 217.732 1059.49 Q214.26 1062.57 207.94 1062.57 Q205.764 1062.57 203.496 1062.2 Q201.25 1061.83 198.843 1061.09 L198.843 1056.39 Q200.926 1057.53 203.149 1058.08 Q205.371 1058.64 207.848 1058.64 Q211.852 1058.64 214.19 1056.53 Q216.528 1054.42 216.528 1050.81 Q216.528 1047.2 214.19 1045.1 Q211.852 1042.99 207.848 1042.99 Q205.973 1042.99 204.098 1043.41 Q202.246 1043.82 200.301 1044.7 L200.301 1027.34 Z" fill="#000000" fill-rule="nonzero" fill-opacity="1"></path><path clip-path="url(#clip660)" d="M164.028 777.784 Q160.417 777.784 158.589 781.349 Q156.783 784.891 156.783 792.02 Q156.783 799.127 158.589 802.692 Q160.417 806.233 164.028 806.233 Q167.663 806.233 169.468 802.692 Q171.297 799.127 171.297 792.02 Q171.297 784.891 169.468 781.349 Q167.663 777.784 164.028 777.784 M164.028 774.081 Q169.839 774.081 172.894 778.687 Q175.973 783.27 175.973 792.02 Q175.973 800.747 172.894 805.354 Q169.839 809.937 164.028 809.937 Q158.218 809.937 155.14 805.354 Q152.084 800.747 152.084 792.02 Q152.084 783.27 155.14 778.687 Q158.218 774.081 164.028 774.081 Z" fill="#000000" fill-rule="nonzero" fill-opacity="1"></path><path clip-path="url(#clip660)" d="M184.19 803.386 L189.075 803.386 L189.075 809.266 L184.19 809.266 L184.19 803.386 Z" fill="#000000" fill-rule="nonzero" fill-opacity="1"></path><path clip-path="url(#clip660)" d="M209.26 777.784 Q205.649 777.784 203.82 781.349 Q202.014 784.891 202.014 792.02 Q202.014 799.127 203.82 802.692 Q205.649 806.233 209.26 806.233 Q212.894 806.233 214.699 802.692 Q216.528 799.127 216.528 792.02 Q216.528 784.891 214.699 781.349 Q212.894 777.784 209.26 777.784 M209.26 774.081 Q215.07 774.081 218.125 778.687 Q221.204 783.27 221.204 792.02 Q221.204 800.747 218.125 805.354 Q215.07 809.937 209.26 809.937 Q203.449 809.937 200.371 805.354 Q197.315 800.747 197.315 792.02 Q197.315 783.27 200.371 778.687 Q203.449 774.081 209.26 774.081 Z" fill="#000000" fill-rule="nonzero" fill-opacity="1"></path><path clip-path="url(#clip660)" d="M159.052 552.695 L175.371 552.695 L175.371 556.631 L153.427 556.631 L153.427 552.695 Q156.089 549.941 160.672 545.311 Q165.278 540.658 166.459 539.316 Q168.704 536.793 169.584 535.057 Q170.487 533.297 170.487 531.608 Q170.487 528.853 168.542 527.117 Q166.621 525.381 163.519 525.381 Q161.32 525.381 158.866 526.145 Q156.436 526.909 153.658 528.459 L153.658 523.737 Q156.482 522.603 158.936 522.024 Q161.39 521.446 163.427 521.446 Q168.797 521.446 171.991 524.131 Q175.186 526.816 175.186 531.307 Q175.186 533.436 174.376 535.358 Q173.589 537.256 171.482 539.848 Q170.903 540.52 167.802 543.737 Q164.7 546.932 159.052 552.695 Z" fill="#000000" fill-rule="nonzero" fill-opacity="1"></path><path clip-path="url(#clip660)" d="M185.186 550.751 L190.07 550.751 L190.07 556.631 L185.186 556.631 L185.186 550.751 Z" fill="#000000" fill-rule="nonzero" fill-opacity="1"></path><path clip-path="url(#clip660)" d="M200.301 522.071 L218.658 522.071 L218.658 526.006 L204.584 526.006 L204.584 534.478 Q205.602 534.131 206.621 533.969 Q207.639 533.784 208.658 533.784 Q214.445 533.784 217.824 536.955 Q221.204 540.126 221.204 545.543 Q221.204 551.121 217.732 554.223 Q214.26 557.302 207.94 557.302 Q205.764 557.302 203.496 556.932 Q201.25 556.561 198.843 555.82 L198.843 551.121 Q200.926 552.256 203.149 552.811 Q205.371 553.367 207.848 553.367 Q211.852 553.367 214.19 551.26 Q216.528 549.154 216.528 545.543 Q216.528 541.932 214.19 539.825 Q211.852 537.719 207.848 537.719 Q205.973 537.719 204.098 538.135 Q202.246 538.552 200.301 539.432 L200.301 522.071 Z" fill="#000000" fill-rule="nonzero" fill-opacity="1"></path><path clip-path="url(#clip660)" d="M154.075 269.436 L172.431 269.436 L172.431 273.371 L158.357 273.371 L158.357 281.843 Q159.376 281.496 160.394 281.334 Q161.413 281.148 162.431 281.148 Q168.218 281.148 171.598 284.32 Q174.977 287.491 174.977 292.908 Q174.977 298.486 171.505 301.588 Q168.033 304.667 161.714 304.667 Q159.538 304.667 157.269 304.296 Q155.024 303.926 152.616 303.185 L152.616 298.486 Q154.7 299.621 156.922 300.176 Q159.144 300.732 161.621 300.732 Q165.626 300.732 167.964 298.625 Q170.302 296.519 170.302 292.908 Q170.302 289.297 167.964 287.19 Q165.626 285.084 161.621 285.084 Q159.746 285.084 157.871 285.5 Q156.019 285.917 154.075 286.797 L154.075 269.436 Z" fill="#000000" fill-rule="nonzero" fill-opacity="1"></path><path clip-path="url(#clip660)" d="M184.19 298.116 L189.075 298.116 L189.075 303.996 L184.19 303.996 L184.19 298.116 Z" fill="#000000" fill-rule="nonzero" fill-opacity="1"></path><path clip-path="url(#clip660)" d="M209.26 272.514 Q205.649 272.514 203.82 276.079 Q202.014 279.621 202.014 286.75 Q202.014 293.857 203.82 297.421 Q205.649 300.963 209.26 300.963 Q212.894 300.963 214.699 297.421 Q216.528 293.857 216.528 286.75 Q216.528 279.621 214.699 276.079 Q212.894 272.514 209.26 272.514 M209.26 268.811 Q215.07 268.811 218.125 273.417 Q221.204 278 221.204 286.75 Q221.204 295.477 218.125 300.084 Q215.07 304.667 209.26 304.667 Q203.449 304.667 200.371 300.084 Q197.315 295.477 197.315 286.75 Q197.315 278 200.371 273.417 Q203.449 268.811 209.26 268.811 Z" fill="#000000" fill-rule="nonzero" fill-opacity="1"></path><path clip-path="url(#clip660)" d="M16.4842 793.362 L16.4842 786.455 L36.0269 773.278 L16.4842 760.197 L16.4842 753.29 L41.3741 770.095 L64.0042 770.095 L64.0042 776.557 L41.3741 776.557 L16.4842 793.362 Z" fill="#000000" fill-rule="nonzero" fill-opacity="1"></path><path clip-path="url(#clip660)" d="M1041.21 63.9476 L1041.21 47.7034 L1027.84 47.7034 L1027.84 40.9789 L1049.31 40.9789 L1049.31 66.9452 Q1044.57 70.3075 1038.86 72.0494 Q1033.14 73.7508 1026.66 73.7508 Q1012.48 73.7508 1004.46 65.4869 Q996.483 57.1826 996.483 42.3968 Q996.483 27.5705 1004.46 19.3066 Q1012.48 11.0023 1026.66 11.0023 Q1032.58 11.0023 1037.88 12.4606 Q1043.23 13.9189 1047.73 16.7545 L1047.73 25.464 Q1043.19 21.6156 1038.09 19.6712 Q1032.98 17.7268 1027.35 17.7268 Q1016.25 17.7268 1010.66 23.9246 Q1005.11 30.1225 1005.11 42.3968 Q1005.11 54.6305 1010.66 60.8284 Q1016.25 67.0263 1027.35 67.0263 Q1031.69 67.0263 1035.09 66.2971 Q1038.49 65.5274 1041.21 63.9476 Z" fill="#000000" fill-rule="nonzero" fill-opacity="1"></path><path clip-path="url(#clip660)" d="M1090.22 34.1734 Q1088.97 33.4443 1087.47 33.1202 Q1086.01 32.7556 1084.23 32.7556 Q1077.91 32.7556 1074.5 36.8875 Q1071.14 40.9789 1071.14 48.6757 L1071.14 72.576 L1063.65 72.576 L1063.65 27.2059 L1071.14 27.2059 L1071.14 34.2544 Q1073.49 30.1225 1077.26 28.1376 Q1081.03 26.1121 1086.41 26.1121 Q1087.18 26.1121 1088.11 26.2337 Q1089.05 26.3147 1090.18 26.5172 L1090.22 34.1734 Z" fill="#000000" fill-rule="nonzero" fill-opacity="1"></path><path clip-path="url(#clip660)" d="M1118.66 49.7694 Q1109.63 49.7694 1106.14 51.8354 Q1102.66 53.9013 1102.66 58.8839 Q1102.66 62.8538 1105.25 65.2034 Q1107.88 67.5124 1112.38 67.5124 Q1118.58 67.5124 1122.3 63.1374 Q1126.07 58.7219 1126.07 51.4303 L1126.07 49.7694 L1118.66 49.7694 M1133.53 46.6907 L1133.53 72.576 L1126.07 72.576 L1126.07 65.6895 Q1123.52 69.8214 1119.71 71.8063 Q1115.9 73.7508 1110.39 73.7508 Q1103.43 73.7508 1099.3 69.8619 Q1095.2 65.9325 1095.2 59.3701 Q1095.2 51.7138 1100.31 47.825 Q1105.45 43.9361 1115.62 43.9361 L1126.07 43.9361 L1126.07 43.2069 Q1126.07 38.0623 1122.67 35.2672 Q1119.31 32.4315 1113.19 32.4315 Q1109.3 32.4315 1105.61 33.3632 Q1101.93 34.295 1098.53 36.1584 L1098.53 29.2718 Q1102.62 27.692 1106.47 26.9223 Q1110.31 26.1121 1113.96 26.1121 Q1123.8 26.1121 1128.66 31.2163 Q1133.53 36.3204 1133.53 46.6907 Z" fill="#000000" fill-rule="nonzero" fill-opacity="1"></path><path clip-path="url(#clip660)" d="M1171.85 9.54393 L1171.85 15.7418 L1164.72 15.7418 Q1160.71 15.7418 1159.13 17.3622 Q1157.59 18.9825 1157.59 23.1955 L1157.59 27.2059 L1169.86 27.2059 L1169.86 32.9987 L1157.59 32.9987 L1157.59 72.576 L1150.09 72.576 L1150.09 32.9987 L1142.96 32.9987 L1142.96 27.2059 L1150.09 27.2059 L1150.09 24.0462 Q1150.09 16.471 1153.62 13.0277 Q1157.14 9.54393 1164.8 9.54393 L1171.85 9.54393 Z" fill="#000000" fill-rule="nonzero" fill-opacity="1"></path><path clip-path="url(#clip660)" d="M1199.11 27.2059 L1207.01 27.2059 L1221.19 65.2844 L1235.37 27.2059 L1243.26 27.2059 L1226.25 72.576 L1216.12 72.576 L1199.11 27.2059 Z" fill="#000000" fill-rule="nonzero" fill-opacity="1"></path><path clip-path="url(#clip660)" d="M1287.14 65.7705 L1287.14 89.8329 L1279.64 89.8329 L1279.64 27.2059 L1287.14 27.2059 L1287.14 34.0924 Q1289.49 30.0415 1293.05 28.0971 Q1296.66 26.1121 1301.64 26.1121 Q1309.9 26.1121 1315.05 32.6746 Q1320.23 39.2371 1320.23 49.9314 Q1320.23 60.6258 1315.05 67.1883 Q1309.9 73.7508 1301.64 73.7508 Q1296.66 73.7508 1293.05 71.8063 Q1289.49 69.8214 1287.14 65.7705 M1312.49 49.9314 Q1312.49 41.7081 1309.09 37.0496 Q1305.73 32.3505 1299.82 32.3505 Q1293.9 32.3505 1290.5 37.0496 Q1287.14 41.7081 1287.14 49.9314 Q1287.14 58.1548 1290.5 62.8538 Q1293.9 67.5124 1299.82 67.5124 Q1305.73 67.5124 1309.09 62.8538 Q1312.49 58.1548 1312.49 49.9314 Z" fill="#000000" fill-rule="nonzero" fill-opacity="1"></path><path clip-path="url(#clip660)" d="M1358.88 34.1734 Q1357.62 33.4443 1356.12 33.1202 Q1354.66 32.7556 1352.88 32.7556 Q1346.56 32.7556 1343.16 36.8875 Q1339.8 40.9789 1339.8 48.6757 L1339.8 72.576 L1332.3 72.576 L1332.3 27.2059 L1339.8 27.2059 L1339.8 34.2544 Q1342.15 30.1225 1345.91 28.1376 Q1349.68 26.1121 1355.07 26.1121 Q1355.84 26.1121 1356.77 26.2337 Q1357.7 26.3147 1358.84 26.5172 L1358.88 34.1734 Z" fill="#000000" fill-rule="nonzero" fill-opacity="1"></path><path clip-path="url(#clip660)" d="M1382.45 32.4315 Q1376.46 32.4315 1372.97 37.1306 Q1369.49 41.7891 1369.49 49.9314 Q1369.49 58.0738 1372.93 62.7728 Q1376.42 67.4314 1382.45 67.4314 Q1388.41 67.4314 1391.89 62.7323 Q1395.38 58.0333 1395.38 49.9314 Q1395.38 41.8701 1391.89 37.1711 Q1388.41 32.4315 1382.45 32.4315 M1382.45 26.1121 Q1392.18 26.1121 1397.73 32.4315 Q1403.28 38.7509 1403.28 49.9314 Q1403.28 61.0714 1397.73 67.4314 Q1392.18 73.7508 1382.45 73.7508 Q1372.69 73.7508 1367.14 67.4314 Q1361.63 61.0714 1361.63 49.9314 Q1361.63 38.7509 1367.14 32.4315 Q1372.69 26.1121 1382.45 26.1121 Z" fill="#000000" fill-rule="nonzero" fill-opacity="1"></path><path clip-path="url(#clip660)" d="M1444.55 28.5427 L1444.55 35.5912 Q1441.39 33.9709 1437.99 33.1607 Q1434.59 32.3505 1430.94 32.3505 Q1425.39 32.3505 1422.6 34.0519 Q1419.84 35.7533 1419.84 39.156 Q1419.84 41.7486 1421.83 43.2475 Q1423.81 44.7058 1429.81 46.0426 L1432.36 46.6097 Q1440.3 48.3111 1443.62 51.4303 Q1446.98 54.509 1446.98 60.0587 Q1446.98 66.3781 1441.96 70.0644 Q1436.98 73.7508 1428.23 73.7508 Q1424.58 73.7508 1420.61 73.0216 Q1416.68 72.3329 1412.31 70.9151 L1412.31 63.2184 Q1416.44 65.3654 1420.45 66.4591 Q1424.46 67.5124 1428.39 67.5124 Q1433.66 67.5124 1436.49 65.73 Q1439.33 63.9071 1439.33 60.6258 Q1439.33 57.5877 1437.26 55.9673 Q1435.24 54.3469 1428.31 52.8481 L1425.72 52.2405 Q1418.79 50.7821 1415.71 47.7845 Q1412.63 44.7463 1412.63 39.4801 Q1412.63 33.0797 1417.17 29.5959 Q1421.71 26.1121 1430.05 26.1121 Q1434.18 26.1121 1437.83 26.7198 Q1441.48 27.3274 1444.55 28.5427 Z" fill="#000000" fill-rule="nonzero" fill-opacity="1"></path><path clip-path="url(#clip660)" d="M1466.23 14.324 L1466.23 27.2059 L1481.58 27.2059 L1481.58 32.9987 L1466.23 32.9987 L1466.23 57.6282 Q1466.23 63.1779 1467.73 64.7578 Q1469.26 66.3376 1473.92 66.3376 L1481.58 66.3376 L1481.58 72.576 L1473.92 72.576 Q1465.29 72.576 1462.01 69.3758 Q1458.73 66.1351 1458.73 57.6282 L1458.73 32.9987 L1453.26 32.9987 L1453.26 27.2059 L1458.73 27.2059 L1458.73 14.324 L1466.23 14.324 Z" fill="#000000" fill-rule="nonzero" fill-opacity="1"></path><path clip-path="url(#clip660)" d="M1508.96 32.4315 Q1502.97 32.4315 1499.48 37.1306 Q1496 41.7891 1496 49.9314 Q1496 58.0738 1499.44 62.7728 Q1502.93 67.4314 1508.96 67.4314 Q1514.92 67.4314 1518.4 62.7323 Q1521.89 58.0333 1521.89 49.9314 Q1521.89 41.8701 1518.4 37.1711 Q1514.92 32.4315 1508.96 32.4315 M1508.96 26.1121 Q1518.69 26.1121 1524.24 32.4315 Q1529.78 38.7509 1529.78 49.9314 Q1529.78 61.0714 1524.24 67.4314 Q1518.69 73.7508 1508.96 73.7508 Q1499.2 73.7508 1493.65 67.4314 Q1488.14 61.0714 1488.14 49.9314 Q1488.14 38.7509 1493.65 32.4315 Q1499.2 26.1121 1508.96 26.1121 Z" fill="#000000" fill-rule="nonzero" fill-opacity="1"></path><path clip-path="url(#clip660)" d="M1568.43 34.1734 Q1567.17 33.4443 1565.68 33.1202 Q1564.22 32.7556 1562.44 32.7556 Q1556.12 32.7556 1552.71 36.8875 Q1549.35 40.9789 1549.35 48.6757 L1549.35 72.576 L1541.86 72.576 L1541.86 27.2059 L1549.35 27.2059 L1549.35 34.2544 Q1551.7 30.1225 1555.47 28.1376 Q1559.23 26.1121 1564.62 26.1121 Q1565.39 26.1121 1566.32 26.2337 Q1567.26 26.3147 1568.39 26.5172 L1568.43 34.1734 Z" fill="#000000" fill-rule="nonzero" fill-opacity="1"></path><path clip-path="url(#clip660)" d="M1575.48 54.671 L1575.48 27.2059 L1582.93 27.2059 L1582.93 54.3874 Q1582.93 60.8284 1585.44 64.0691 Q1587.96 67.2693 1592.98 67.2693 Q1599.01 67.2693 1602.5 63.421 Q1606.02 59.5726 1606.02 52.9291 L1606.02 27.2059 L1613.48 27.2059 L1613.48 72.576 L1606.02 72.576 L1606.02 65.6084 Q1603.31 69.7404 1599.7 71.7658 Q1596.14 73.7508 1591.4 73.7508 Q1583.58 73.7508 1579.53 68.8897 Q1575.48 64.0286 1575.48 54.671 M1594.23 26.1121 L1594.23 26.1121 Z" fill="#000000" fill-rule="nonzero" fill-opacity="1"></path><circle clip-path="url(#clip662)" cx="1298.81" cy="708.67" r="14.4" fill="#009af9" fill-rule="evenodd" fill-opacity="1" stroke="#000000" stroke-opacity="1" stroke-width="3.2"></circle>
<circle clip-path="url(#clip662)" cx="1321.13" cy="810.128" r="14.4" fill="#009af9" fill-rule="evenodd" fill-opacity="1" stroke="#000000" stroke-opacity="1" stroke-width="3.2"></circle>
<circle clip-path="url(#clip662)" cx="316.512" cy="160.256" r="14.4" fill="#009af9" fill-rule="evenodd" fill-opacity="1" stroke="#000000" stroke-opacity="1" stroke-width="3.2"></circle>
<circle clip-path="url(#clip662)" cx="1320.42" cy="802.606" r="14.4" fill="#009af9" fill-rule="evenodd" fill-opacity="1" stroke="#000000" stroke-opacity="1" stroke-width="3.2"></circle>
<circle clip-path="url(#clip662)" cx="2293.45" cy="1386.4" r="14.4" fill="#009af9" fill-rule="evenodd" fill-opacity="1" stroke="#000000" stroke-opacity="1" stroke-width="3.2"></circle>
<polyline clip-path="url(#clip662)" style="stroke:#000000; stroke-linecap:round; stroke-linejoin:round; stroke-width:8; stroke-opacity:1; fill:none" points="1298.81,708.67 1321.13,810.128 "></polyline>
<polyline clip-path="url(#clip662)" style="stroke:#000000; stroke-linecap:round; stroke-linejoin:round; stroke-width:8; stroke-opacity:1; fill:none" points="1298.81,708.67 316.512,160.256 "></polyline>
<polyline clip-path="url(#clip662)" style="stroke:#000000; stroke-linecap:round; stroke-linejoin:round; stroke-width:8; stroke-opacity:1; fill:none" points="1298.81,708.67 1320.42,802.606 "></polyline>
<polyline clip-path="url(#clip662)" style="stroke:#000000; stroke-linecap:round; stroke-linejoin:round; stroke-width:8; stroke-opacity:1; fill:none" points="1298.81,708.67 2293.45,1386.4 "></polyline>
<polyline clip-path="url(#clip662)" style="stroke:#000000; stroke-linecap:round; stroke-linejoin:round; stroke-width:8; stroke-opacity:1; fill:none" points="1321.13,810.128 316.512,160.256 "></polyline>
<polyline clip-path="url(#clip662)" style="stroke:#000000; stroke-linecap:round; stroke-linejoin:round; stroke-width:8; stroke-opacity:1; fill:none" points="316.512,160.256 1320.42,802.606 "></polyline>
<polyline clip-path="url(#clip662)" style="stroke:#000000; stroke-linecap:round; stroke-linejoin:round; stroke-width:8; stroke-opacity:1; fill:none" points="1320.42,802.606 2293.45,1386.4 "></polyline>
</svg>